<svg width="432" height="173" viewBox="0 0 432 173" fill="none" xmlns="http://www.w3.org/2000/svg">
<path d="M117.159 12.0101C113.757 11.7765 107.091 15.6548 102.849 16.6828C101.762 16.8853 98.617 17.4024 94.7388 17.851C89.891 18.4117 82.293 23.5984 81.2677 25.1404C80.2421 26.6824 71.339 33.1775 69.3347 34.5326C67.3303 35.8877 60.4782 43.8313 58.2408 46.8218C56.0034 49.8122 53.2999 54.2514 50.4565 67.2414C47.6131 80.2317 47.7529 74.5777 46.3545 82.8017C44.9562 91.0257 47.986 100.418 50.3633 104.109C52.7405 107.801 51.8083 113.081 52.0879 122.099C52.3676 131.117 61.0842 136.912 64.2073 139.388C67.3303 141.865 77.2589 150.089 79.8691 151.257C82.4796 152.425 92.3614 153.967 97.5356 154.855C102.71 155.743 106.811 158.733 110.587 159.668C114.363 160.602 120.096 159.434 125.223 157.799C130.351 156.163 136.644 157.659 144.242 155.93C151.84 154.201 161.302 146.911 165.73 142.612C170.158 138.313 175.985 128.968 177.29 126.678C178.595 124.389 178.828 120.043 178.922 115.791C179.015 111.539 180.786 107.24 182.417 104.436C184.049 101.633 187.265 97.0067 187.871 94.1097C188.477 91.2125 186.846 89.1566 185.028 85.9324C183.21 82.7082 183.863 77.1943 184.002 70.6993C184.142 64.2043 182.371 63.5501 179.621 52.8027C176.871 42.0557 172.442 39.579 168.9 35.0466C165.357 30.5141 158.971 27.8506 148.344 25.6077C137.716 23.3648 130.864 17.5239 128.02 15.0007C125.177 12.4774 120.562 12.2438 117.159 12.0101Z" fill="#77F93A"/>
<path d="M85.5093 64.7183C83.9712 64.4846 80.6151 67.3818 79.6363 68.0827C78.4243 70.9486 76.1403 77.4561 76.6996 80.5587C77.3987 84.4371 78.0979 84.0166 79.4496 88.222C80.8014 92.4274 81.454 92.5676 85.1366 95.9319C88.8189 99.2963 89.6579 100.885 91.5225 103.876C93.387 106.866 89.7977 105.464 85.1366 103.128C80.4752 100.792 82.293 99.2028 80.4752 94.1097C78.6572 89.0164 79.3566 92.8479 78.0979 95.1844C76.8394 97.5207 83.1788 106.352 85.1366 108.034C87.0942 109.716 86.6282 105.605 95.1583 112.333C103.688 119.062 112.032 117.053 116.367 116.352C120.702 115.651 122.427 110.511 124.571 106.352C126.715 102.194 126.482 103.175 129.419 102.334C132.355 101.492 123.685 114.529 121.262 117.053C118.838 119.576 120.003 119.576 119.91 121.819C119.816 124.062 123.452 122.052 125.27 121.305C127.088 120.557 126.016 119.483 125.27 116.352C124.524 113.221 138.695 107.941 141.585 105.278C144.475 102.614 143.356 102.707 143.17 98.1749C142.983 93.6423 138.928 91.9603 137.483 89.8108C136.038 87.6613 134.499 85.3251 135.385 82.4747C136.271 79.6241 138.788 82.4745 142.47 82.1009C146.153 81.727 146.619 82.3812 145.92 79.0168C145.221 75.6525 142.517 68.363 140.886 66.3071C139.254 64.2509 137.622 64.6248 133.474 65.3256C129.326 66.0268 123.126 65.1388 120.842 65.3256C118.558 65.5127 113.663 64.7183 113.011 62.8958C112.358 61.0736 113.244 59.7652 112.498 55.7C111.752 51.6347 119.49 45.6538 116.087 45.9807C112.685 46.3077 111.799 46.8687 107.93 48.1302C104.061 49.3917 104.528 48.2704 101.171 48.6909C97.8153 49.1114 82.8991 55.5132 83.2253 57.2887C83.5517 59.0643 85.2764 58.5972 88.0265 58.3166C90.7765 58.0362 94.3658 58.3166 95.6711 60.8399C96.976 63.3633 95.065 64.2509 93.1074 67.2883C91.1495 70.3254 91.1495 70.6527 88.4925 72.2881C85.8358 73.9235 85.789 73.0825 87.0009 69.1574C88.2128 65.2324 87.0477 64.952 85.5093 64.7183Z" fill="#78FF39"/>
<path d="M104.924 92.6145C104.998 94.2218 107.348 95.7683 107.93 95.4648C108.513 95.161 108.456 94.5215 108.932 94.0628C109.515 93.5021 109.873 93.4154 110.634 93.5488C111.566 93.7124 113.337 95.7217 114.363 95.7918C115.177 95.8474 118.594 95.9952 120.096 95.1144C121.331 94.3901 130.071 87.7549 130.864 82.568C131.67 77.2895 129.675 76.0029 127.204 72.4048C124.734 68.807 121.681 67.6153 121.168 67.2417C120.655 66.8678 126.203 68.2229 129.605 69.7181C133.008 71.2134 138.322 76.6803 137.203 84.6239C136.084 92.5676 132.076 96.1656 130.491 98.3151C128.906 100.465 128.44 99.6702 127.135 100.792C125.83 101.913 125.55 102.24 124.618 103.175C123.685 104.109 121.867 103.408 121.588 103.175C121.308 102.941 120.795 102.24 122.893 101.025C123.872 101.025 123.685 99.6235 124.618 98.3151C125.55 97.0067 125.83 97.0067 127.135 95.7918C128.44 94.5769 129.279 94.2965 130.491 93.1751C131.703 92.0535 132.076 91.0723 132.076 89.2967C132.076 87.5211 131.936 88.2686 130.864 89.2967C129.792 90.3248 128.766 92.5676 127.554 93.5488C126.342 94.5302 125.596 95.7918 122.893 96.1656C120.189 96.5395 120.516 97.0067 120.283 98.3151C120.889 98.8292 120.795 99.016 120.516 99.3429C120.236 99.6702 120.003 100.324 118.744 100.792C117.486 101.259 115.155 101.025 113.617 100.792C112.079 100.558 110.867 100.044 109.608 99.9972C108.35 99.9505 109.095 100.418 109.375 101.025C109.655 101.633 110.913 102.661 111.519 103.782C112.125 104.904 111.147 104.623 110.167 104.249C109.189 103.876 108.443 103.175 107.977 102.24C107.511 101.306 107.193 99.3375 107.324 97.8011C107.394 96.9832 107.114 96.7498 106.625 96.1656C106.264 95.7348 105.646 95.8853 105.506 96.1656C105.355 96.47 105.46 97.7075 105.506 98.689C105.553 99.6702 104.854 99.6001 104.621 99.3429C104.399 99.0986 103.502 97.6609 102.803 95.7918C102.103 93.9226 102.21 90.7031 102.523 89.5771C102.803 88.5724 105.46 83.9231 107.977 83.082C110.494 82.241 112.452 85.4652 113.337 85.8857C114.223 86.3062 114.782 86.6332 115.155 85.8857C115.528 85.138 114.036 83.9231 113.943 83.082C113.85 82.241 114.922 81.5399 115.715 81.5399C116.507 81.5399 117.766 84.4838 118.045 84.9512C118.325 85.4183 119.024 84.4371 119.024 82.568C119.024 80.6989 116.367 80.9326 111.986 80.7458C107.604 80.5587 110.68 81.2129 104.947 82.3343C99.2136 83.4559 98.2813 84.5307 96.6499 89.2967C95.0184 94.0628 97.722 99.2497 98.8874 102.24C100.053 105.231 100.053 104.062 101.777 105.464C103.502 106.866 105.273 105.885 106.858 106.352C108.443 106.819 106.998 108.548 107.651 110.511C108.303 112.473 110.68 109.997 115.155 110.511C119.63 111.025 122.1 107.801 123.685 107.66C125.27 107.52 124.618 108.034 124.105 108.548C123.592 109.062 120.516 110.558 120.516 111.399C120.516 112.24 122.986 110.371 125.084 109.156C127.181 107.941 127.461 108.548 127.135 109.53C126.808 110.511 126.109 110.698 124.618 111.959C123.126 113.221 121.122 114.109 117.999 115.557C114.875 117.006 108.909 116.211 108.023 116.165C107.138 116.118 105.833 114.249 105.273 112.66C104.714 111.071 105.879 109.389 104.015 108.548C102.15 107.707 95.8574 104.997 94.7853 103.175C93.7132 101.352 92.2216 94.7639 92.0818 92.5676C91.9419 90.3715 92.4547 86.3998 93.7597 83.9231C95.065 81.4466 98.0481 77.3345 100.798 75.3721C103.548 73.4095 119.024 73.8769 120.003 73.9701C120.982 74.0637 122.007 75.6991 120.283 75.3721C118.558 75.0449 116.46 75.9794 116.6 76.6803C116.74 77.3814 119.024 76.8674 120.795 78.316C122.566 79.7643 123.825 82.8483 123.266 85.4652C122.707 88.0818 117.999 89.2032 115.715 89.2967C113.431 89.3903 109.562 86.54 108.443 87.381C107.324 88.222 104.83 90.6052 104.924 92.6145Z" fill="#1D8F0B"/>
<path d="M65.2794 101.539C65.1862 101.259 62.6691 87.2874 64.6268 86.3995C66.5845 85.5119 67.0041 87.7546 67.5168 86.3995C68.0295 85.0444 67.7965 83.6894 69.2415 81.3997C70.6865 79.1101 71.106 76.7738 71.712 78.3626C72.3179 79.9514 72.0849 80.8859 71.712 83.6427C71.339 86.3995 70.7797 88.736 70.2203 90.792C69.661 92.8479 67.5168 97.287 67.5168 98.8291C67.5168 100.371 67.0041 101.96 67.0507 103.455C67.0973 104.95 68.3092 108.408 69.0084 109.016C69.7076 109.623 71.5721 111.025 72.2713 112.52C72.9705 114.015 75.1612 116.632 76.2333 117.566C77.3054 118.501 78.9836 119.529 80.5218 120.464C82.0601 121.398 88.446 126.865 90.5902 127.333C92.7344 127.8 98.4676 130.276 100.891 131.304C103.315 132.332 107.79 134.762 109.282 135.557C110.774 136.351 112.778 136.351 114.503 136.678C116.227 137.005 117.719 136.865 117.579 138.173C117.439 139.482 115.155 140.229 113.57 139.715C111.986 139.201 109.049 137.332 108.396 137.005C107.744 136.678 109.935 138.594 109.795 139.154C109.655 139.715 108.816 138.921 107.604 138.173C106.392 137.426 105.926 136.351 104.481 135.837C103.036 135.323 100.192 134.996 99.8197 135.276C99.4467 135.557 99.8662 135.837 101.264 136.678C102.663 137.519 104.061 138.874 104.714 139.715C105.367 140.556 106.392 142.566 106.718 144.014C107.044 145.463 108.07 146.958 108.396 148.033C108.723 149.107 110.68 150.93 111.566 151.724C112.452 152.518 112.918 152.846 114.176 152.939C115.435 153.032 115.808 153.313 116.693 152.939C117.579 152.565 118.418 152.191 119.164 151.444C119.91 150.696 121.867 150.743 123.312 150.509C124.757 150.276 125.69 151.023 126.762 149.762C127.834 148.5 128.58 148.266 129.232 146.865C129.885 145.463 130.631 144.295 130.817 143.22L130.826 143.169C131.009 142.112 131.184 141.106 130.817 140.416C130.444 139.715 129.745 139.201 128.253 138.827C126.762 138.454 125.457 138.313 124.385 138.407C123.312 138.5 122.147 138.827 121.028 139.154C119.91 139.482 119.024 139.949 117.859 140.416C116.693 140.883 118.418 138.5 119.583 137.893C120.749 137.286 122.24 136.304 123.312 135.557C124.385 134.809 130.817 131.117 133.008 130.463C135.199 129.809 138.555 128.968 140.279 128.828C142.004 128.688 143.076 129.762 144.661 128.174C146.246 126.585 147.225 125.744 148.39 124.622C149.555 123.501 153.797 119.342 155.196 117.987C156.594 116.632 157.853 115.23 158.785 114.155C159.717 113.081 160.649 112.146 161.115 112.754C161.581 113.361 162.421 114.716 161.115 116.352C159.81 117.987 157.107 120.464 157.946 120.604C158.785 120.744 161.442 117.38 162.188 116.352C162.933 115.324 164.332 112.66 165.311 111.492C166.289 110.324 167.268 108.408 168.107 107.38C168.946 106.352 169.133 104.95 170.625 104.623C172.116 104.296 172.676 104.717 172.116 106.165C171.557 107.614 170.718 109.576 170.345 110.417C169.972 111.259 163.586 119.809 162.887 120.604C162.188 121.398 154.823 126.351 154.31 127.847C153.797 129.342 152.865 130.043 153.471 131.351C154.077 132.659 154.823 133.314 154.31 134.155C153.797 134.996 152.352 135.837 150.954 136.444C149.555 137.052 147.085 138.734 148.39 137.052C149.695 135.369 150.767 134.996 150.581 134.155C150.394 133.314 150.348 133.501 148.763 133.828C147.178 134.155 145.127 135.276 142.377 135.697C139.627 136.117 138.974 135.79 137.343 136.678C135.711 137.566 134.313 139.201 134.36 137.939C134.406 136.678 134.966 135.93 136.038 135.043C137.11 134.155 138.275 132.613 136.318 133.22C134.36 133.828 128.3 133.407 127.647 135.043C126.995 136.678 126.762 136.818 128.253 137.379C129.745 137.939 131.749 138.874 133.288 139.154C134.826 139.435 136.737 140.229 137.622 140.743C138.508 141.257 140.559 140.93 140.746 142.566C140.932 144.201 140.186 147.706 134.966 150.089C129.745 152.472 123.779 154.107 120.795 154.06C117.812 154.014 110.028 153.406 108.676 152.612C107.666 152.113 105.282 150.911 103.828 150.089C102.01 149.061 99.8197 149.201 99.8197 148.033C99.8197 146.865 100.006 147.659 101.264 147.659C102.523 147.659 102.896 147.986 102.663 146.397C102.43 144.808 102.57 144.108 101.917 142.566C101.264 141.024 100.239 140.276 99.3999 140.136C98.5609 139.996 97.349 139.949 96.2304 139.388C95.1117 138.827 91.5225 136.071 91.0562 135.557C90.5902 135.043 88.073 133.08 89.4248 133.22C90.7765 133.36 93.0606 135.043 94.4591 135.043C95.8574 135.043 98.188 136.024 97.5821 135.043C96.976 134.061 93.1539 132.332 92.7344 132.052C92.3149 131.772 79.4964 121.679 78.5642 120.931C77.6319 120.183 76.4199 119.529 75.5342 119.389C74.6487 119.249 75.1612 120.043 75.3478 120.744C75.5342 121.445 75.3944 121.632 76.6528 122.987C77.9115 124.342 77.6319 124.763 79.4031 126.445C81.1744 128.127 82.2465 129.108 83.4584 130.884C84.6703 132.659 85.4628 133.314 85.8358 134.014C86.2085 134.716 86.0686 135.837 84.9965 134.528C83.9244 133.22 82.8523 132.893 81.3142 130.884C79.7761 128.874 77.1191 127.379 76.2333 126.024C75.3478 124.669 74.0891 124.015 72.8307 122.613C71.5721 121.211 70.9661 120.931 69.7542 118.781C68.5423 116.632 67.7965 115.791 67.5634 114.95C67.3303 114.109 67.5634 112.987 67.5634 112.754C67.5634 112.707 67.5466 112.658 67.5301 112.623C67.4768 112.541 67.5029 112.564 67.5301 112.623C67.6054 112.738 67.8385 113.06 68.449 113.782C69.7542 115.324 69.4745 115.698 71.1526 115.978C72.8307 116.258 73.1569 115.931 72.8307 115.184C72.5044 114.436 71.4789 113.641 70.9661 112.894C70.4534 112.146 67.1905 106.913 66.8176 106.025C66.4447 105.137 66.0252 103.595 65.7921 102.801C65.6057 102.165 65.3726 101.695 65.2794 101.539Z" fill="#1D8F0B"/>
<path d="M76.4199 88.0818C76.6063 91.0257 76.9793 91.3761 77.3987 92.3107C76.8704 91.8902 76.019 90.8386 75.5342 89.7172C74.9284 88.3155 75.0214 87.5211 74.6019 85.3248C74.2665 83.568 74.7417 80.6367 75.0214 79.3907V76.8204C75.0214 76.2598 76.047 74.8581 76.9325 73.5965C77.8182 72.3347 77.5386 71.8676 77.7717 70.3254C78.0046 68.7836 78.0514 68.1293 78.1912 66.4473C78.331 64.765 78.4243 64.5312 78.5174 62.8958C78.6107 61.2604 79.5429 60.1857 80.1956 59.111C80.8479 58.0362 81.3607 57.2887 81.7802 55.4663C82.1997 53.644 80.8482 53.971 80.1956 54.0645C79.5429 54.1578 79.3098 56.7281 79.3098 57.5691C79.3098 58.4101 78.4708 59.952 77.5386 61.1203C76.6063 62.2885 75.5342 63.2231 74.2757 64.2043C73.0171 65.1855 72.7841 66.5406 72.551 67.5686C72.3179 68.5968 72.8773 71.1667 73.0171 72.9889C73.157 74.8114 72.0849 74.1103 70.9195 74.5777C69.7542 75.0449 70.6399 73.3159 70.6865 71.1667C70.7238 69.447 70.8574 68.6434 70.9195 68.4563C70.5 68.6745 69.5771 68.8021 69.2415 67.5686C68.822 66.0265 68.6355 66.4473 69.661 65.5127C70.6865 64.5782 72.9705 61.0736 73.8563 60.5129C74.7417 59.952 75.1612 59.625 73.8563 59.111C72.551 58.5969 72.2713 58.9242 72.551 58.2233C72.8307 57.5222 73.9028 57.2887 74.2757 56.3073C74.6484 55.3261 74.5086 53.8308 74.2757 52.4291C74.0426 51.0272 74.7883 50.7937 75.5342 48.9246C76.2801 47.0555 79.1235 47.7563 80.8482 46.8684C82.5727 45.9807 83.9244 47.6162 86.6279 47.7563C89.3317 47.8965 91.6623 45.4667 93.4335 44.6257C95.2048 43.7846 96.7897 43.1771 97.0693 42.149C97.349 41.1211 96.2304 40.8874 96.4635 39.6259C96.6964 38.3642 105.133 38.3642 106.625 38.4576C108.117 38.5511 107.744 38.8782 107.184 40.3734C106.625 41.8686 104.667 41.495 104.155 43.1771C103.642 44.8594 105.32 44.6257 108.536 45.4667C111.752 46.3077 114.223 42.9902 114.875 42.4762C115.528 41.9621 116.973 39.8127 117.859 38.8782C118.744 37.9436 119.77 38.1773 121.355 37.8969C122.939 37.6166 125.596 40.4203 127.135 41.495C128.673 42.5697 127.601 42.1023 126.715 41.8686C125.83 41.6352 123.173 40.981 122.194 40.8874C121.215 40.7939 120.655 41.5416 121.355 42.4762C122.054 43.4108 126.202 45.0928 127.601 46.1209C128.999 47.149 129.745 46.5414 129.558 46.1209C129.372 45.7004 128.673 45.4667 128.859 44.6257C129.046 43.7846 132.402 45.1397 133.567 45.4667C134.733 45.7937 137.995 48.3639 139.72 49.5319C141.445 50.7002 140 50.7002 139.44 50.7002C138.881 50.7002 137.762 49.8122 136.55 49.2982C135.338 48.7844 133.521 47.5695 132.402 48.9246C131.283 50.2797 140 55.0457 140.373 55.7466C140.746 56.4474 140.886 54.8589 140.886 54.2983C140.886 53.7373 141.538 53.2702 142.098 53.7373C142.657 54.2047 143.496 56.4008 144.848 58.2699C146.199 60.1391 149.276 64.8585 149.928 67.7555C150.581 70.6527 150.441 72.6151 150.441 73.6432C150.441 74.6713 150.674 77.755 150.441 79.1101C150.208 80.4652 148.716 81.8671 148.716 80.6522C148.716 79.4373 148.81 76.587 148.716 74.9982C148.623 73.4095 147.878 72.662 147.271 72.6151C146.666 72.5684 146.525 77.428 147.038 79.1101C147.551 80.7924 147.038 81.4466 146.059 81.1663C145.081 80.8859 145.174 78.0354 144.848 76.1665C144.521 74.2974 144.241 73.503 143.915 71.4937C143.589 69.4844 143.729 69.2976 143.496 68.363C143.263 67.4285 142.33 65.7462 141.305 64.5313C140.279 63.3164 139.767 61.4006 139.44 60.3259C139.114 59.2511 139.441 59.0643 140 59.3913C140.559 59.7185 141.678 61.4006 142.843 63.036C144.009 64.6714 144.987 66.2136 145.64 67.522C146.293 68.8302 147.085 68.8302 147.038 68.363C146.992 67.8956 146.992 67.0546 146.525 65.7462C146.059 64.438 145.034 62.9427 144.241 61.4006C143.449 59.8587 141.678 58.784 140.886 57.943C140.093 57.1017 138.695 56.4474 137.995 55.7466C137.296 55.0457 135.338 54.1578 134.08 53.2702C132.822 52.3822 133.101 52.9429 131.842 53.2702C130.584 53.5971 128.44 53.2702 127.135 52.9429C125.83 52.6159 123.872 50.7937 122.566 50.7002C121.261 50.6066 117.159 49.4853 115.528 48.9246C113.897 48.3639 113.943 49.0179 114.875 49.8123C115.808 50.6066 117.206 51.2142 117.859 51.6347C118.511 52.0553 117.346 52.1019 115.994 51.6347C114.643 51.1673 113.943 50.56 112.172 49.8123C110.401 49.0648 110.82 49.5788 110.54 49.8123C110.261 50.046 111.519 50.7468 112.824 51.6347C114.13 52.5224 114.036 52.7095 113.943 53.2702C113.85 53.8308 112.824 53.2702 111.519 52.4291C110.214 51.5878 106.485 51.728 103.502 51.2142C100.519 50.7002 95.4844 52.289 91.1495 53.2702C86.8146 54.2514 84.2041 57.6623 82.666 60.1857C81.1279 62.709 80.1488 66.0265 80.1956 69.3442C80.2421 72.662 81.8735 72.1479 81.7802 73.3159C81.6872 74.4842 81.2209 81.3065 80.4284 86.7268C79.6363 92.147 80.6616 99.9971 83.8314 107.193C87.0009 114.389 89.9376 115.137 91.5225 116.819C92.7902 118.165 92.7344 118.283 92.5478 118.174C92.2681 118.143 91.2613 117.828 89.4716 116.819C87.234 115.557 85.416 113.595 83.8314 111.352C82.2465 109.109 80.7081 105.745 80.0557 104.483C79.4031 103.221 79.3098 100.838 78.9836 99.0626C78.6572 97.287 78.5642 96.7263 78.0046 94.6235C77.4453 92.5209 78.0514 92.7546 78.0046 90.1847C77.9581 87.6144 78.3775 88.0818 78.5642 85.3248C78.7505 82.568 79.3098 82.895 79.8226 79.9514C80.3354 77.0075 79.7293 77.9421 79.3098 77.8952C78.8903 77.8486 77.7249 80.2784 76.9325 82.1475C76.1403 84.0166 76.2333 85.138 76.4199 88.0818Z" fill="#1D8F0B"/>
<path d="M105.367 123.174C102.197 123.772 99.4777 123.112 98.5144 122.707C98.5764 123.018 98.645 123.576 99.167 124.062C99.8194 124.669 100.752 125.09 102.663 125.604C104.574 126.118 106.625 125.931 108.396 125.931H113.151C113.757 125.931 117.812 125.604 119.117 125.604C120.423 125.604 119.397 126.445 118.325 126.959C117.253 127.473 115.575 127.566 114.083 127.94C112.89 128.239 111.131 129.03 110.401 129.389H113.431C115.481 129.389 117.299 129.716 117.812 129.389C118.222 129.127 125.814 127.317 129.558 126.445C131.252 126.055 134.938 125.183 136.131 124.809C137.622 124.342 139.86 122.426 140.932 121.445C142.004 120.464 145.174 118.174 146.526 116.959C147.878 115.744 154.729 110.371 154.729 109.857C154.729 109.354 153.971 109.924 153.414 110.343L153.378 110.371C152.818 110.791 150.301 112.707 148.903 113.548C147.505 114.389 144.475 116.632 143.402 117.286C142.33 117.94 138.788 119.576 138.042 119.997C137.296 120.417 134.126 121.959 132.495 123.174C130.864 124.389 129.139 124.622 127.88 125.604C126.622 126.585 123.592 126.304 123.592 125.931C123.592 125.557 122.707 124.062 121.821 124.062C120.935 124.062 119.024 123.968 117.299 124.062C115.575 124.155 115.994 123.781 116.973 123.174C117.952 122.567 122.054 121.538 123.266 121.445C124.478 121.352 129.139 119.997 129.558 119.576C129.978 119.155 132.588 117.754 133.614 116.959C134.639 116.165 137.436 114.856 138.462 113.548C139.487 112.24 142.098 110.371 142.703 109.53C143.309 108.689 144.941 106.446 146.153 104.997C147.365 103.549 148.297 101.165 148.53 99.9505C148.763 98.7356 147.738 99.9039 146.153 101.399C144.568 102.894 142.004 104.436 140.606 107.38C139.207 110.324 129.186 118.034 128.114 119.015C127.042 119.997 125.27 119.997 123.592 119.997C121.914 119.997 118.418 119.903 116.554 119.997C114.689 120.09 113.384 121.538 112.125 121.959C110.867 122.379 109.329 122.426 105.367 123.174Z" fill="#1D8F0B"/>
<path d="M153.774 103.549C153.471 105.931 151.886 106.866 151.583 107.24C151.498 107.59 151.434 108.268 151.863 108.174C152.399 108.058 153.145 107.123 154.24 105.371C155.335 103.619 155.522 104.249 157.363 101.866C159.204 99.4831 158.505 100.371 159.554 98.0814C160.603 95.7918 160.51 95.1375 160.393 93.8294C160.277 92.5209 160.09 94.4601 158.715 95.5581C157.34 96.6562 156.244 97.1935 155.126 98.7356C154.007 100.277 154.077 101.165 153.774 103.549Z" fill="#1D8F0B"/>
<path d="M167.454 84.3092C167.041 86.1503 166.59 88.1612 166.453 88.6425C166.391 88.8217 166.345 89.1705 166.662 89.1331C167.059 89.0865 167.478 88.4322 168.131 86.8435C168.783 85.2547 169.086 84.3201 169.879 81.8671C170.671 79.4139 170.322 79.4373 170.461 77.3345C170.601 75.2319 170.182 75.8393 169.436 76.0261C168.69 76.2131 169.016 77.8485 168.643 79.4373C168.271 81.0261 167.898 82.3343 167.478 84.2034L167.454 84.3092Z" fill="#1D8F0B"/>
<path d="M154.24 87.3575C154.823 86.5631 156.506 85.0913 156.99 83.5026C157.596 81.5167 159.111 80.7223 158.738 78.8066C158.365 76.8905 157.923 75.5589 157.363 75.9794C156.804 76.3999 156.92 77.0075 156.547 77.2644C156.174 77.5216 155.615 76.9841 155.825 75.5355C156.035 74.0871 156.571 71.9843 155.942 71.8676C155.312 71.7506 155.335 71.9843 155.032 72.6852C154.73 73.386 154.217 74.1338 154.007 73.1526C153.797 72.1711 154.217 71.7274 153.844 70.7694C153.471 69.8114 152.376 68.0358 153.191 68.5733C154.007 69.1105 154.427 70.0685 154.8 69.7413C155.172 69.4143 155.382 66.3772 154.8 65.1154C154.217 63.8539 153.354 61.7278 152.352 60.8634C151.35 59.9989 142.797 53.1534 143.659 53.013C144.521 52.8728 145.524 53.4804 145.896 53.574C146.269 53.6672 145.943 52.9898 145.733 52.4057C145.524 51.8215 142.843 46.4013 140.21 44.2283C137.576 42.0557 137.133 41.7985 137.716 41.7754C138.298 41.7519 138.508 41.2848 140.396 42.1258C142.284 42.9668 144.078 43.8547 144.987 44.5788C145.896 45.3031 146.922 46.8684 147.808 48.2704C148.693 49.6721 149.532 51.4946 149.789 52.4057C150.045 53.3168 150.231 53.7141 149.579 53.457C148.926 53.2001 147.808 51.6579 147.808 52.4057C147.808 53.1534 147.784 53.0364 148.274 53.8308C148.763 54.6252 148.367 55.2795 149.579 55.7234C150.791 56.1671 150.884 56.1205 151.676 56.5175C152.469 56.9149 155.149 59.3913 157.433 64.3445C159.717 69.2976 160.37 68.5965 160.486 67.7555C160.603 66.9144 161.139 65.1154 161.581 65.8162C161.985 66.4544 163.273 68.3309 163.434 68.5572C163.429 68.5496 163.433 68.5526 163.446 68.5733C163.454 68.5858 163.449 68.5796 163.434 68.5572C163.459 68.6017 163.77 69.0072 164.215 68.4331C164.868 67.5921 165.194 66.9379 165.334 68.1059C165.474 69.2742 165.637 69.2742 165.8 70.1621C165.87 70.894 165.968 72.6432 165.8 73.7833C165.59 75.2085 163.586 79.4373 163.446 79.9514C163.306 80.4652 161.232 83.6662 161.232 84.6007C161.232 85.535 161.395 86.1426 160.882 85.9324C160.37 85.7221 160.579 85.138 160.02 84.3201C159.461 83.5026 159.274 82.9184 158.738 83.7595C158.202 84.6007 157.27 85.1614 156.547 86.096C155.969 86.8435 154.504 87.8871 153.844 88.3155C153.844 88.3155 153.658 88.1519 154.24 87.3575Z" fill="#1D8F0B"/>
<path d="M97.9551 61.6343C96.9483 62.681 98.6542 61.8836 99.633 61.354C100.099 61.354 101.32 61.2885 102.476 61.027C103.921 60.6997 106.252 60.1391 106.019 59.2511C105.786 58.3635 105.879 58.0831 106.252 57.3354C106.625 56.5879 109.189 57.3354 112.591 57.6157C115.994 57.8961 114.316 58.3166 109.795 59.2511C105.273 60.1857 108.21 61.354 109.189 61.027C110.167 60.6997 118.232 61.6343 120.516 61.6343C122.8 61.6343 128.673 65.4658 130.398 66.2136C132.122 66.9613 130.351 64.9987 129.605 63.2231C128.859 61.4475 130.491 63.5034 131.516 64.7183C132.542 65.9332 132.822 64.8585 132.262 63.2231C131.703 61.5877 131.33 61.354 131.143 60.3728C130.957 59.3913 132.262 61.0736 133.94 61.354C135.618 61.6343 133.707 59.9523 132.262 58.0831C130.817 56.214 129.559 56.4944 127.974 55.7466C126.389 54.9991 125.55 55.2795 124.431 55.4196C123.312 55.5598 125.363 56.4944 126.435 57.3354C127.508 58.1764 126.762 58.7374 125.83 58.3166C124.897 57.8961 122.007 56.4944 119.863 55.7466C117.719 54.9991 114.922 54.5317 112.079 53.971C109.235 53.4103 108.769 53.7842 107.604 53.971C106.439 54.1581 106.951 55.5598 106.252 56.4944C105.553 57.4289 104.061 57.8494 101.637 58.7374C99.2136 59.625 99.2135 60.3259 97.9551 61.6343Z" fill="#1D8F0B"/>
<path d="M86.3018 138.22C86.0221 139.528 85.2762 140.79 84.0177 141.397C82.7593 142.005 81.398 140.51 80.0557 139.388C78.3775 137.986 78.4243 138.547 76.0935 135.93C73.7629 133.314 73.6231 133.501 72.551 131.585C71.4789 129.669 68.1228 121.165 67.0973 118.174C66.0718 115.184 66.0252 115.417 64.9997 113.969C63.9742 112.52 63.5547 113.922 61.6436 112.847C59.7324 111.773 60.2918 111.305 58.0544 109.81C55.817 108.315 56.4229 109.296 55.1178 110.511C54.0737 111.483 54.2477 112.473 54.4652 112.847C54.6827 113.751 55.1178 115.941 55.1178 117.473C55.1178 119.389 56.2831 121.445 56.8891 123.361C57.495 125.277 57.4484 125.931 58.0544 125.931C58.6603 125.931 58.1476 125.37 59.0799 124.155C60.0121 122.94 67.1905 135.089 69.6144 137.566C72.0382 140.042 72.0849 140.79 74.6487 143.313C77.2124 145.836 79.17 144.855 81.0811 145.182C82.9924 145.51 85.2762 145.743 88.5393 146.07C91.8021 146.397 90.9164 146.631 92.4079 146.07C93.8998 145.51 92.0353 144.995 90.264 142.192C88.4925 139.388 88.3994 139.201 87.2806 137.799C86.1619 136.398 86.5814 136.912 86.3018 138.22Z" fill="#C4F013"/>
<path d="M57.3552 102.801C56.7026 104.857 56.5628 106.352 56.0966 106.773V104.296C56.0966 103.081 55.7237 102.52 55.0712 101.165C54.4186 99.8103 52.8804 97.7544 52.1812 95.5581C51.482 93.362 52.4608 93.3153 52.6007 91.306C52.7405 89.2967 52.6007 89.3903 53.2533 87.9417C53.9058 86.493 56.0966 85.7922 56.656 84.9043C57.2154 84.0166 57.3552 83.8764 57.6815 87.2874C58.0078 90.6984 56.7026 90.1378 56.0966 93.6423C55.4907 97.1468 56.4696 95.7918 57.3552 98.5485C58.2408 101.306 58.0078 100.745 57.3552 102.801Z" fill="#C4F013"/>
<path d="M72.0848 62.3352C72.495 61.2885 74.3688 60.2168 75.2545 59.8118C75.4254 59.298 75.8699 58.0362 76.2801 57.1017C76.7926 55.9337 76.9325 55.5598 77.3987 53.8308C77.8598 52.1202 79.5533 51.233 81.5759 50.1733L81.6404 50.1395C83.6915 49.0648 84.9035 49.9993 86.9544 48.6909C89.0053 47.3824 88.2596 47.5226 86.6282 46.8218C84.9965 46.1209 85.4163 46.0274 86.6282 45.233C87.8401 44.4386 89.6114 43.5043 91.8486 42.8032C94.0862 42.1023 93.2937 41.5416 93.7597 40.0464C94.226 38.5511 95.4379 38.9249 96.0438 38.4577C96.6499 37.9904 99.167 38.4577 100.146 38.0371C101.125 37.6166 100.239 37.5231 98.7008 36.9624C97.4703 36.5138 103.844 35.3425 107.184 34.813C105.211 34.4391 100.845 33.7663 99.167 34.0653C97.0693 34.4391 93.8065 35.1868 92.4547 35.9344C91.103 36.682 87.98 37.2428 86.2552 38.4577C84.5376 39.6676 83.2362 40.0895 81.6602 40.6008L81.6404 40.6071C80.0557 41.1211 83.0854 39.1118 84.6238 37.5231C86.1619 35.9344 87.7468 36.168 89.0521 34.813C90.3571 33.4579 89.4248 33.8317 88.5858 33.6915C87.7468 33.5513 85.6959 34.5793 84.9035 34.813C84.111 35.0466 82.4328 36.4484 81.6404 36.9624C80.8482 37.4764 79.5895 37.1493 78.0046 37.2428C76.4199 37.3362 74.6952 38.6913 73.2036 39.3922C71.712 40.093 70.7331 40.6537 69.1482 40.6071C67.5634 40.5604 67.0973 40.8874 66.2116 41.5416C65.326 42.1959 65.2794 43.2706 66.2116 44.2518C67.1439 45.233 68.8686 44.3453 70.0805 44.2518C71.2924 44.1582 73.39 42.4762 75.4877 41.5416C77.5851 40.6071 78.2377 38.4109 79.5895 38.4577C80.6708 38.495 78.5797 41.6818 77.3987 43.2706C74.6487 44.8594 68.1694 48.9527 64.2539 52.6159C59.3595 57.1952 57.262 64.2509 57.7747 63.3633C58.2874 62.4753 65.0463 58.1298 67.3303 57.1017C69.6144 56.0738 70.7331 57.1017 68.0762 58.7371C65.9506 60.0455 62.4981 66.2913 61.0376 69.2507C61.4571 68.7991 62.464 67.69 63.1352 66.8678C63.9742 65.8397 64.6734 64.2978 65.2794 63.3633C65.8853 62.4287 67.7498 61.5408 68.4024 60.5596C69.055 59.5784 70.0805 59.0177 70.7331 59.0643C71.3857 59.111 70.0805 61.1203 69.1482 62.3352C68.216 63.5501 67.7499 64.7183 67.3303 66.1669C66.9108 67.6153 67.3303 69.0173 67.3303 71.6339C67.3303 74.2505 67.1439 75.6991 67.3303 77.1477C67.5168 78.5963 67.6566 78.8298 68.0762 79.484C68.4957 80.1382 68.6821 79.2036 68.9152 77.7084C69.1482 76.2131 69.1482 75.8862 69.1482 74.4842C69.1482 73.0825 69.8008 72.6151 69.8008 71.6339C69.8008 70.6527 70.0805 69.6246 69.8008 69.0173C69.5211 68.4097 69.9873 67.1012 70.0805 65.6995C70.1737 64.2978 71.5721 63.6436 72.0848 62.3352Z" fill="#C4F013"/>
<path d="M59.2663 55.8401C58.1243 57.6157 54.9546 59.9288 54.5118 60.8399C54.5118 60.5751 54.5771 59.7886 54.8381 58.7605C55.1644 57.4755 56.656 54.7888 56.9124 53.7607C57.1688 52.7329 59.2663 50.8169 60.4783 49.8592C61.6902 48.9011 62.0631 48.8545 63.1119 48.2469C64.1607 47.6396 65.629 47.7563 65.6756 48.8545C65.7222 49.9524 63.578 51.7283 62.2263 52.6159C60.8745 53.5039 60.4084 54.0645 59.2663 55.8401Z" fill="#C4F013"/>
<path d="M155.242 137.986C152.958 140.743 152.585 139.762 152.119 140.229C151.653 140.697 151.951 141.304 152.958 141.491C154.217 141.724 154.403 140.977 156.314 139.762C158.225 138.547 158.925 139.856 160.976 140.229C163.027 140.603 161.721 139.201 160.976 137.753C160.23 136.304 161.535 135.977 161.721 133.594C161.908 131.211 160.836 133.173 158.925 134.202C157.013 135.229 157.526 135.229 155.242 137.986Z" fill="#C4F013"/>
<path d="M160.393 130.23C159.135 132.402 157.55 132.519 157.107 132.917C157.301 133.103 157.848 133.416 158.482 133.173C159.274 132.87 159.694 132.589 160.929 132.216C162.164 131.842 162.234 131.959 163.26 131.374C164.285 130.791 164.728 130.23 165.381 129.646C166.033 129.062 167.152 127.216 167.828 126.421C168.504 125.627 170.368 121.702 170.625 120.44C170.881 119.179 170.764 117.754 171.044 115.067C171.268 112.917 170.687 112.583 170.368 112.684C170.205 113.236 169.828 114.487 169.622 115.067C169.366 115.791 167.991 118.01 167.571 118.992C167.152 119.973 165.66 121.982 165.054 123.594C164.448 125.207 161.651 128.057 160.393 130.23Z" fill="#C4F013"/>
<path d="M171.51 108.642C170.671 110.698 170.951 111.118 170.997 111.913C171.168 112.053 171.594 111.95 171.93 110.417C172.349 108.501 172.955 108.361 173.981 106.773C175.006 105.184 175.053 104.857 175.985 103.455C176.917 102.053 178.735 97.5673 178.129 95.4648C177.523 93.362 177.244 92.2872 176.591 89.6706C175.938 87.0537 175.426 86.8669 174.68 84.2034C173.934 81.5399 174.26 81.8205 173.981 80.4652C173.701 79.1101 173.468 80.4652 172.955 81.8205C172.442 83.1756 172.769 85.1846 172.396 87.4742C172.023 89.7639 174.027 94.2965 174.26 95.4648C174.493 96.6328 174.773 97.801 174.68 100.231C174.587 102.661 174.353 103.735 173.468 105.09C172.582 106.446 172.349 106.586 171.51 108.642Z" fill="#C4F013"/>
<path d="M164.378 52.5224C165.87 53.1954 168.822 58.5969 170.112 61.2138V64.9051C170.112 65.6995 171.324 63.9239 171.324 63.2697C171.324 62.6155 171.044 60.466 170.531 58.6904C170.019 56.9149 168.154 54.7654 167.315 53.3168C166.644 52.1581 163.959 49.968 162.7 49.0179C160.991 48.2393 156.547 45.6257 152.446 41.4015C147.318 36.1213 140.886 33.9718 140.606 33.6915C140.326 33.4111 133.66 31.1682 132.122 29.4393C130.584 27.7104 127.461 27.0095 126.715 26.6824C125.969 26.3553 124.105 25.374 122.24 25.8413C120.376 26.3086 116.787 24.2526 116.041 23.8788C115.295 23.505 112.358 22.1966 111.659 22.1966C110.96 22.1966 108.909 21.2153 107.604 22.1966C106.299 23.1779 105.646 23.0377 104.9 23.8788C104.155 24.7199 98.4679 25.374 96.4167 26.1217C94.3658 26.8693 91.1963 26.6824 90.1242 27.7104C89.2664 28.5328 88.6791 28.7384 88.4925 28.7384C89.1141 28.7384 90.6927 28.5328 92.0353 27.7104C93.7132 26.6824 100.332 26.5889 101.498 26.6824C102.663 26.7758 106.112 26.3553 109.701 27.0095C113.291 27.6637 116.554 28.3646 116.367 28.1309C116.181 27.8973 114.036 26.916 112.731 26.3553C111.426 25.7946 110.774 24.6264 109.981 23.8788C109.189 23.1311 110.727 23.1311 111.426 23.0377C112.125 22.9442 113.197 24.1591 114.036 25.374C114.875 26.5889 122.986 28.5047 124.524 29.4393C126.063 30.3738 131.143 32.056 133.148 33.9718C135.152 35.8876 143.636 38.6445 144.754 39.1585C145.873 39.6725 150.115 43.1771 154.73 47.0086C159.344 50.8403 156.874 51.4477 157.573 53.644C158.272 55.8401 156.734 56.8213 156.874 58.1764C157.014 59.5315 157.946 58.3635 160.137 58.6904C162.327 59.0174 161.628 59.4848 163.306 61.2138C164.984 62.9425 164.378 63.9706 164.378 65.5593C164.378 67.1481 165.124 67.7088 166.289 68.2229C167.455 68.7366 168.014 69.1105 168.62 67.7088C169.226 66.3068 168.62 65.5594 168.62 63.2697C168.62 60.9801 168.48 61.2138 167.315 59.2511C166.15 57.2887 163.772 56.4008 161.628 54.7654C159.484 53.13 159.484 52.5224 158.598 51.4477C157.713 50.3729 157.154 48.7844 158.226 49.0179C159.298 49.2516 162.514 51.6814 164.378 52.5224Z" fill="#C4F013"/>
<path d="M132.775 25.561C130.864 24.7666 126.529 25.2806 126.109 25.2806C126.187 25.374 126.389 25.561 126.575 25.561C126.808 25.561 129.512 26.7291 131.563 27.5702C133.614 28.4113 133.241 29.1589 134.546 30.3271C135.851 31.4953 139.254 32.056 140.886 32.7102C142.517 33.3644 144.754 34.4858 146.526 35.3269C148.297 36.168 149.276 37.5231 151.047 38.3642C152.818 39.2053 153.937 40.1866 155.242 41.3548C156.547 42.5228 157.573 43.8779 157.946 43.5509C158.319 43.2237 156.594 40.5604 155.242 38.738C153.89 36.9156 151.979 36.2147 150.767 35.3269C149.555 34.4391 146.945 33.6915 145.221 32.3831C143.496 31.0747 142.377 30.1402 140.886 28.7851C139.394 27.43 134.686 26.3553 132.775 25.561Z" fill="#C4F013"/>
<path d="M50.5031 75.0449C50.0836 77.3345 50.0836 81.3531 49.5708 83.7363C49.5708 84.1412 49.6081 85.5118 49.7573 87.7549C49.9437 90.5583 49.5708 95.2311 49.5708 95.7917C49.5708 96.3524 49.9903 97.6609 50.5963 99.3898C51.2023 101.119 52.2744 102.334 52.9736 103.549C53.6728 104.763 53.7194 106.679 53.9991 108.548C54.2787 110.417 54.7449 110.371 54.9779 110.09C55.211 109.81 55.9102 107.894 56.2365 105.978C56.5628 104.062 55.5839 102.334 54.9779 100.605C54.372 98.8758 53.2066 97.7075 52.2744 95.2311C51.3421 92.7546 52.3676 91.5864 52.6473 90.0445C52.927 88.5023 54.0457 86.9605 54.7449 86.0725C55.4441 85.1849 57.0755 84.297 57.4018 84.9512C57.7281 85.6054 56.2365 88.2686 56.2365 89.8108C56.2365 91.3527 55.4907 93.4086 56.2365 95.2311C56.9823 97.0533 58.2875 102.24 57.8213 103.128L57.7996 103.17C57.3479 104.029 57.1214 104.461 57.0755 105.978C57.0289 107.52 57.5416 108.081 59.0333 110.09C60.2266 111.698 61.8611 113.346 62.5292 113.969C63.1352 113.533 64.5616 112.969 65.4192 114.202C66.4913 115.744 69.1483 122.193 69.4745 123.127C69.8008 124.062 72.7374 131.912 74.835 134.996C76.9327 138.08 80.7549 139.855 82.1067 140.883C83.4584 141.911 84.0177 140.883 84.9965 140.416C85.9756 139.949 85.789 138.36 86.3018 137.332C86.8146 136.304 88.6791 140.556 89.9376 142.192C91.196 143.827 92.2216 144.481 92.4547 146.023C92.6879 147.565 90.2172 145.65 88.3527 146.023C86.4884 146.397 88.7256 146.771 90.2172 147.145C91.7088 147.519 97.9083 151.631 101.824 153.219C105.739 154.808 116.927 154.901 118.838 154.668C120.749 154.434 127.228 152.425 135.059 152.285C142.89 152.145 148.064 150.696 149.462 149.949C150.861 149.201 153.378 147.892 154.217 146.865C155.056 145.836 158.645 142.519 160.043 140.837C161.442 139.155 161.069 139.809 160.556 139.482C160.043 139.155 157.293 139.014 156.221 139.482C155.149 139.949 152.772 140.977 150.907 141.725C149.043 142.472 151.001 140.416 152.399 139.482C153.797 138.547 156.547 136.678 157.293 135.51C158.039 134.342 160.556 133.547 160.043 133.173C159.531 132.8 156.781 133.921 156.967 132.8C157.154 131.678 161.442 127.847 162.281 127.146C163.12 126.445 167.082 120.37 167.268 119.529C167.455 118.688 169.04 113.782 170.112 112.006C171.184 110.23 171.697 108.361 172.209 107.053C172.722 105.745 175.705 99.9971 175.333 99.1095C174.96 98.2216 174.773 97.8477 174.4 96.3993C174.027 94.9507 173.841 93.5956 173.514 91.3526C173.188 89.1099 173.002 88.1754 173.002 86.4464V82.1941C173.002 80.2784 173.934 80.5121 174.214 81.6334C174.493 82.7551 176.451 90.3248 177.01 91.9602C177.57 93.5957 178.316 94.9974 178.409 96.7263C178.502 98.4553 179.388 96.6797 179.901 94.1097C180.413 91.5397 180.367 91.3527 180.32 89.7172C180.273 88.0818 179.807 80.1848 179.388 77.8486C178.968 75.5123 179.015 73.6898 178.735 70.8395C178.456 67.9892 177.803 65.8397 177.01 61.5877C176.218 57.3354 174.027 53.644 172.536 50.6066C171.044 47.5695 166.01 39.8596 164.658 38.3175C163.306 36.7755 161.442 33.1308 158.086 33.1308C154.73 33.1308 148.157 29.9533 146.246 29.5795C144.335 29.2057 137.576 26.2152 136.504 25.8881C135.432 25.561 126.948 21.7761 124.664 20.5612C122.38 19.3463 115.528 18.4585 111.379 18.365C107.231 18.2716 100.192 21.1219 98.8406 21.1687C97.4888 21.2154 91.2893 23.8321 88.2128 25.7012C85.1363 27.5703 76.2333 32.9906 74.6952 33.9251C73.157 34.8597 70.8729 36.8689 68.6355 39.0184C66.3981 41.1678 67.4236 40.5604 68.6355 40.5604C69.8475 40.5604 71.0128 40.5604 73.157 39.6259C75.3011 38.6913 76.9793 37.8035 77.9581 37.196C78.9369 36.5886 80.4752 36.8689 81.7337 36.8689C82.9924 36.8689 84.2974 35.2802 85.4628 34.3924C86.6282 33.5046 87.4672 32.8971 89.3783 31.4019C91.2893 29.9066 91.3826 32.1495 90.5437 33.5981C89.7044 35.0466 85.2764 36.2615 83.2253 38.1306C81.1744 39.9998 80.7549 41.0276 81.7337 40.5604C82.7125 40.093 85.4628 37.8035 86.3018 37.196C87.1407 36.5886 88.2128 36.0279 90.5437 36.2615C92.8742 36.4951 97.9083 34.1121 100.519 33.5981C103.129 33.0841 105.833 34.3924 107.324 35.2802C108.816 36.168 104.388 35.6073 101.777 35.6073C99.167 35.6073 98.7008 36.168 98.8406 37.196C98.9804 38.224 102.01 37.8035 104.388 39.6259C106.765 41.4481 109.235 41.3548 112.918 43.3172C116.6 45.2799 123.919 44.4389 123.079 43.3172C122.24 42.1959 120.469 42.336 118.418 41.3548C116.367 40.3734 115.295 39.9529 114.27 37.8035C113.244 35.654 113.663 35.6073 114.689 34.3924C115.715 33.1775 116.74 34.1588 118.884 35.6073C121.028 37.0559 124.012 40.5604 125.41 41.9155C126.808 43.2706 127.601 43.224 129.326 44.1116C131.05 44.9995 133.754 44.906 133.474 44.4389C133.194 43.9714 131.283 42.336 129.326 40.5604C127.368 38.7847 126.762 38.4109 126.063 36.8689C125.363 35.327 128.347 36.4951 130.258 36.8689C132.169 37.2428 133.894 37.196 136.737 37.8035C139.58 38.4109 142.564 41.0745 144.521 42.336C146.479 43.5976 146.898 45.0928 148.157 46.8687C149.416 48.6442 150.628 50.9805 151.793 52.8963C152.958 54.812 152.772 56.3073 153.331 58.4101C153.89 60.5129 154.823 61.5877 156.221 63.4099C157.62 65.2324 158.365 64.952 159.251 64.3445C160.137 63.7371 160.37 62.7557 160.416 60.8865C160.463 59.0177 160.09 58.784 159.251 58.4101C158.412 58.0362 158.225 58.9242 156.92 58.4101C155.615 57.8961 157.06 55.4663 157.34 53.3637C157.62 51.2609 156.967 50.56 156.221 48.5507C155.475 46.5414 149.975 43.5509 148.81 42.336C147.644 41.1211 146.666 40.7472 145.454 39.3455C144.242 37.9437 142.61 38.0371 140.979 37.196C139.347 36.3549 137.902 35.9344 136.504 35.2802C135.385 34.7569 128.145 31.2617 124.664 29.5795C123.235 29.0811 120.18 28.0843 119.397 28.0843C118.418 28.0843 115.342 25.6544 114.456 25.0937C113.57 24.533 111.752 23.4116 110.354 23.0377C108.956 22.6639 111.566 24.9535 112.964 26.2152C114.083 27.2245 115.699 28.131 116.367 28.4581C115.512 28.3335 113.393 28.0001 111.752 27.6637C109.701 27.2432 105.46 26.4488 103.782 26.2152C102.104 25.9815 98.3278 26.6824 97.2092 27.0095C96.0905 27.3366 91.3361 27.617 90.5437 28.0843C89.7512 28.5515 87.8401 28.4581 88.2128 28.0843C88.5858 27.7104 93.9463 26.6824 95.4379 26.4488C96.9295 26.2152 103.642 24.0657 104.807 23.8321C105.972 23.5985 107.278 22.8041 108.21 21.7761C109.142 20.7481 110.028 21.3088 111.986 21.7761C113.943 22.2434 118.185 24.9068 119.397 25.0937C120.609 25.2806 125.923 26.4021 126.948 26.6824C127.974 26.9628 128.953 27.3833 130.584 28.4581C132.215 29.5328 134.266 30.7477 135.152 31.4019C136.038 32.0561 137.343 32.8037 138.368 33.1308C139.394 33.4579 144.521 35.2335 146.898 36.8689C149.276 38.5044 155.522 44.2984 157.34 45.5133C159.158 46.7282 164.192 49.9058 167.455 53.3637C170.718 56.8213 170.625 62.5689 171.184 66.9144C171.743 71.26 170.112 76.2598 169.599 75.185C169.086 74.1103 167.874 71.8207 167.455 72.9889C167.035 74.1572 160.743 85.2781 159.997 85.979C159.251 86.6801 150.488 95.7451 149.136 97.1937C147.784 98.6421 146.246 104.109 145.826 105.698C145.407 107.287 146.805 105.745 148.623 105.698C150.441 105.651 150.954 104.904 151.979 104.109C153.005 103.315 153.238 102.988 154.776 101.866C156.314 100.745 157.154 99.5766 158.412 98.4553C159.67 97.3339 159.764 95.8384 159.997 94.9974C160.23 94.1563 160.929 92.5676 161.535 91.3526C162.141 90.1377 162.514 88.5959 162.793 87.9417C163.073 87.2874 165.777 84.2503 166.103 83.2222C166.429 82.1941 167.129 81.2596 167.874 80.5121C168.62 79.7643 170.019 81.2596 170.625 82.4745C171.23 83.6894 170.438 84.6708 171.697 86.4464C172.955 88.222 172.069 88.4557 172.442 89.4369C172.815 90.4181 173.002 95.4179 173.002 96.2592C173.002 97.1002 173.142 99.4831 173.002 100.838C172.862 102.194 164.938 113.501 164.938 113.268C164.938 113.034 164.798 111.445 164.938 109.576C165.077 107.707 163.633 107.427 162.514 107.053C161.395 106.679 159.484 108.501 158.412 109.109C157.34 109.716 154.963 112.193 153.984 113.501C153.005 114.81 151.234 116.539 150.255 118.174C149.276 119.809 151.187 118.314 152.119 118.174C153.051 118.034 154.543 118.408 155.196 118.922C155.848 119.436 150.534 127.379 149.462 128.361C148.39 129.342 138.648 130.744 139.161 129.248C139.674 127.753 140.046 127.379 141.305 126.258C142.564 125.136 142.983 124.249 142.89 122.567C142.797 120.884 141.678 123.408 140.046 124.249C138.415 125.09 135.292 126.819 134.266 127.379C133.241 127.94 129.139 128.874 126.948 129.248C124.757 129.622 118.838 131.024 116.927 131.024C115.015 131.024 111.659 130.697 111.473 131.024C111.286 131.351 115.109 132.379 117.299 132.94C119.49 133.501 120.889 134.762 122.567 135.323C124.245 135.884 126.948 137.005 128.766 137.613C130.584 138.22 131.003 139.528 130.724 140.743C130.444 141.958 123.872 142.472 121.821 142.94C119.77 143.407 115.248 142.052 113.663 141.958C112.079 141.865 107.138 138.827 106.205 138.033C105.273 137.239 102.616 136.491 101.451 135.977C100.286 135.463 98.7008 137.659 98.6077 135.977C98.5144 134.295 98.2347 133.36 97.3958 132.94C96.5565 132.519 92.2216 130.837 90.5437 129.669L90.4531 129.606C88.7381 128.412 85.2084 125.955 84.0177 124.716C82.8058 123.454 78.9836 121.912 77.6319 120.697C76.2801 119.482 75.3011 119.903 74.835 121.398C74.3688 122.893 75.2545 126.492 75.674 127.94C76.0935 129.389 76.6996 131.024 77.8647 132.94C79.0302 134.856 77.9115 134.575 76.6996 133.36C75.4877 132.146 70.6399 125.136 69.9407 122.847C69.2415 120.557 64.5336 111.165 64.3471 110.744C64.1607 110.324 63.4615 108.548 62.4826 107.427C61.5037 106.305 59.6392 103.689 59.3129 103.128C58.9867 102.567 56.656 95.0443 56.656 94.2499C56.656 93.4555 57.0755 92.7546 57.4018 90.3715C57.7281 87.9883 58.2875 87.4742 58.4739 87.6147C58.6604 87.7549 59.1265 91.5397 59.6392 93.1751C60.152 94.8106 60.7113 95.7917 61.3639 98.128C62.0165 100.465 62.6225 100.091 63.7412 99.8103C64.8599 99.53 65.9786 91.1658 65.0463 85.7922C64.1141 80.4185 65.326 76.2131 65.6057 75.0449C65.8853 73.8769 67.1905 72.8488 67.2371 71.8676C67.2837 70.8864 67.4236 66.2136 68.216 64.5782C69.0084 62.9427 70.6399 60.9335 70.6399 59.2045C70.6399 57.4755 67.4236 62.4753 65.6057 63.1762C63.7878 63.8773 61.3639 70.3723 61.3639 68.6434C61.3639 66.9144 64.9065 62.4287 65.9786 60.9335C67.0507 59.4382 68.5889 59.625 69.3347 58.9242C70.0805 58.2233 69.3347 56.9615 68.216 56.4477C67.0973 55.9337 63.3216 58.9242 61.3639 60.9335C59.4062 62.9427 58.3807 62.9427 58.8468 60.6531C59.3129 58.3635 62.2495 56.5879 63.7412 54.2047C65.2328 51.8215 68.7288 49.4386 69.3347 48.6443C69.9407 47.8499 71.945 46.4948 72.8307 45.747C73.7164 44.9995 74.9749 44.5321 76.2333 43.6911C77.4921 42.8501 77.7717 42.9433 78.2377 41.2613C78.704 39.5792 79.4496 38.4109 79.1235 38.3175C78.797 38.224 76.2801 39.9998 74.9749 41.6818C73.6696 43.3641 72.7841 43.2706 71.5721 43.9714C70.3602 44.6723 69.5211 44.3453 67.4236 43.9714C65.326 43.5976 65.9786 42.5228 65.326 42.9433C64.6734 43.3641 63.3216 45.2799 61.9233 46.8687C60.5249 48.4572 61.3639 47.6161 60.8046 49.4386C60.2452 51.2609 62.3894 49.0648 62.7157 48.6443C63.042 48.2237 65.2794 48.2704 65.326 49.0648C65.3726 49.8592 63.6946 51.7283 62.7157 52.1954C61.7368 52.6626 60.1054 54.6719 58.3807 56.0269C56.656 57.382 56.3297 58.1764 55.211 58.9242C54.0923 59.6716 52.7871 65.6529 52.321 66.6807C51.8549 67.7088 50.9226 72.7552 50.5031 75.0449Z" fill="#24BF0F"/>
<path d="M160.999 135.486C160.58 136.982 161.512 138.687 161.605 138.991C161.698 139.295 162.234 138.571 162.421 137.823C162.654 136.888 166.289 133.571 167.431 131.912C168.573 130.253 171.557 126.492 172.839 124.132C174.121 121.772 174.027 118.198 174.726 114.576C175.426 110.955 176.405 108.221 176.637 106.983C176.871 105.745 178.059 102.404 177.686 101.866C177.314 101.329 175.845 102.52 175.076 103.689C174.307 104.857 172.279 109.833 171.417 110.604C170.555 111.375 170.834 114.903 171.044 116.375C171.252 117.837 169.736 123.24 169.305 124.778L169.296 124.809C168.876 126.305 166.15 129.459 164.542 130.627C162.933 131.795 163.446 131.234 162.421 132.449C161.395 133.664 161.419 133.991 160.999 135.486Z" fill="#24BF0F"/>
<path d="M59.3595 117.099C59.2663 116.095 58.2175 116.095 57.5649 116.141C56.9124 116.188 56.4043 116.632 56.1432 117.099C55.817 117.683 56.2365 117.847 56.4695 118.595C56.7026 119.342 57.7281 119.062 58.7069 119.179C59.6858 119.295 59.4528 118.104 59.3595 117.099Z" fill="#FFFAFC"/>
<path d="M69.8474 110.768C69.7309 109.903 68.8919 109.903 68.3092 109.927C67.7265 109.95 67.5308 109.997 67.307 110.277C67.0273 110.628 67.0506 110.768 67.0972 111.585C67.1439 112.403 67.7498 112.59 68.3092 112.87C68.8686 113.151 69.3347 113.034 69.7542 112.52C70.1737 112.006 69.9639 111.632 69.8474 110.768Z" fill="#FFFAFC"/>
<path d="M63.5314 108.945C62.9347 108.198 62.0708 107.949 61.7135 107.917C61.6746 107.917 61.541 107.89 61.3173 107.777C61.0376 107.637 60.3617 107.917 60.082 108.268C59.8023 108.618 60.082 109.296 60.1286 109.693C60.1752 110.09 60.2452 110.487 59.9888 110.627C59.7324 110.768 59.1498 110.487 58.637 110.674C58.1243 110.861 58.3107 111.095 58.2408 112.053C58.1709 113.011 59.0332 112.987 60.688 113.548C62.3427 114.109 62.739 113.081 63.7178 112.356C64.6967 111.632 65.023 110.441 64.9065 109.927C64.7899 109.413 64.2772 109.88 63.5314 108.945Z" fill="#FFFAFC"/>
<path d="M64.2539 105.675C64.2073 104.81 63.5081 104.436 62.6924 104.366C61.8767 104.296 61.4571 104.74 61.2707 105.207C61.0376 105.791 61.0609 106.142 61.5037 106.562C61.9466 106.983 62.6924 106.96 63.5081 106.983C64.3238 107.006 64.3005 106.539 64.2539 105.675Z" fill="#FFFAFC"/>
<path d="M59.4527 97.4973C59.3129 96.6328 57.9378 96.7263 57.495 96.8199C57.0522 96.9131 56.7818 97.329 56.6327 97.6843C56.4462 98.128 56.4229 98.5954 56.6327 99.2028C56.8424 99.8103 57.4484 99.857 57.7281 100.511C58.0077 101.165 58.637 101.446 58.94 101.072C59.243 100.698 59.0565 100.628 59.0565 100.137C59.0565 99.6467 59.4527 99.7869 59.6625 99.3197C59.8723 98.8523 59.5926 98.3617 59.4527 97.4973Z" fill="#FFFAFC"/>
<path d="M54.4419 97.6609C54.2554 96.5861 53.6495 96.3293 52.8104 96.3293C51.9714 96.3293 51.6218 96.759 51.3421 97.3571C50.9925 98.1048 51.3887 98.3852 51.8316 99.016C52.2744 99.6467 53.2533 99.8804 53.7427 99.6702C54.2321 99.4599 54.6283 98.7356 54.4419 97.6609Z" fill="#FFFAFC"/>
<path d="M56.4929 90.2078C56.3297 89.5771 55.4208 89.7639 55.0479 89.7873C54.6983 89.7873 53.9478 89.9368 53.7427 90.5351C53.4863 91.2826 53.5096 91.3996 53.7427 91.9602C53.9757 92.5209 55.0479 92.4743 55.8636 92.3338C56.6793 92.1937 56.656 90.8386 56.4929 90.2078Z" fill="#FFFAFC"/>
<path d="M54.4186 85.1614C54.0224 83.853 51.5286 84.8576 51.179 85.1614C50.8294 85.4652 49.72 86.9605 49.7573 87.895C49.8039 89.063 50.0603 89.2266 50.876 89.3434C51.6917 89.4604 53.463 88.4789 54.1855 87.7314C54.908 86.9836 54.8148 86.4699 54.4186 85.1614Z" fill="#FFFAFC"/>
<path d="M56.9124 106.446C55.8869 106.632 56.1899 106.609 55.6538 108.455C55.5761 108.611 55.3135 108.932 54.8847 108.969C54.3487 109.016 54.1855 109.109 54.0223 109.95C53.8592 110.791 53.8592 111.071 54.1855 111.726C54.5118 112.38 55.0945 112.473 55.7703 113.034C56.4462 113.595 57.0755 112.987 57.2386 111.936C57.4018 110.885 57.3552 110.674 57.6349 109.95C57.9145 109.226 58.4972 109.203 59.243 108.338C59.9888 107.474 59.2896 107.847 58.9167 106.913C58.5438 105.978 57.9378 106.259 56.9124 106.446Z" fill="#FFFAFC"/>
<path d="M173.002 64.7183C172.303 65.0453 172.512 66.9144 172.512 67.2417C172.512 67.3505 172.564 67.648 172.769 67.9657C173.025 68.363 173.305 67.9191 174.377 67.5686C175.449 67.2182 175.076 66.6807 175.472 65.7462C175.868 64.8119 175.402 65.1388 174.633 64.3445C173.864 63.5501 173.701 64.3911 173.002 64.7183Z" fill="#FFFAFC"/>
<path d="M62.7157 129.062C62.2262 128.711 62.133 128.828 61.4804 129.062C61.1619 129.248 60.5342 129.856 60.5714 130.79C60.6181 131.958 61.9698 131.818 62.5525 131.725C63.1352 131.632 62.9021 131.234 63.2051 131.141C63.5081 131.047 63.578 131.538 63.881 131.818C64.184 132.099 64.3937 131.655 64.7899 131.538C65.1861 131.421 65.2094 131.795 66.1417 132.496C67.0739 133.197 67.913 132.426 68.4257 131.982C68.9385 131.538 68.7753 130.417 68.5889 129.856C68.4034 129.298 67.5027 129.226 66.9197 129.179L66.9108 129.178C66.3281 129.132 66.0951 129.832 65.7455 129.856C65.3959 129.879 65.326 129.575 64.9764 129.062C64.6268 128.548 64.2072 129.132 63.881 129.389C63.5547 129.645 63.2051 129.412 62.7157 129.062Z" fill="#FFFAFC"/>
<path d="M67.7032 118.992C67.4982 118.076 66.6079 117.878 66.1883 117.894C65.7377 117.971 64.734 118.412 64.3238 119.553C63.8111 120.978 65.3027 121.398 65.7688 121.749C66.2349 122.099 67.1905 121.842 67.8198 120.931C68.449 120.02 67.9596 120.136 67.7032 118.992Z" fill="#FFFAFC"/>
<path d="M75.9303 117.239C75.7067 116.511 74.501 116.515 73.9262 116.609L73.3435 116.913C73.1802 117.076 72.7934 117.529 72.551 118.034C72.248 118.665 72.481 119.039 72.7607 119.716C73.0404 120.394 73.693 120.557 74.4387 120.861C75.1846 121.165 76.0002 120.674 76.4199 119.646C76.8394 118.618 76.2102 118.151 75.9303 117.239Z" fill="#FFFAFC"/>
<path d="M75.4409 125.79C75.2173 125.417 74.6797 125.432 74.4387 125.487C74.1745 125.635 73.6139 126.024 73.4833 126.398C73.3201 126.865 73.5532 127.169 73.8329 127.519C74.1125 127.87 75.0682 127.613 75.5807 127.169C76.0935 126.725 75.7205 126.258 75.4409 125.79Z" fill="#FFFAFC"/>
<path d="M72.7607 138.337C72.2946 137.075 71.339 137.589 70.5 137.496C70.4534 137.496 70.3275 137.547 70.197 137.753C70.0339 138.01 69.661 138.103 69.1715 138.781C68.6821 139.458 69.0317 139.458 68.9851 140.416C68.9385 141.374 69.6843 141.094 70.5 141.841C71.3157 142.589 72.6209 141.631 73.0637 140.883C73.5064 140.136 73.2268 139.598 72.7607 138.337Z" fill="#FFFAFC"/>
<path d="M79.8691 133.944C79.6828 133.103 79.1235 132.917 78.4009 132.917C77.6784 132.917 77.5851 133.201 77.2124 133.407C76.7461 133.664 76.8626 134.014 76.7695 134.528C76.6762 135.043 76.8394 135.276 77.1422 135.837C77.4453 136.398 77.9347 136.257 78.5642 136.491C79.1934 136.725 79.543 136.257 79.7293 135.977C79.9159 135.697 80.0557 134.786 79.8691 133.944Z" fill="#FFFAFC"/>
<path d="M84.4606 133.734C84.1576 133.033 83.1788 132.566 82.5027 132.846C81.827 133.127 82.0275 133.463 81.7103 133.968C81.3142 134.599 81.5705 134.716 81.5939 135.416C81.6173 136.117 82.3164 136.257 82.9921 136.631C83.6682 137.005 84.3208 136.257 84.7637 135.486C85.2063 134.716 84.7637 134.435 84.4606 133.734Z" fill="#FFFAFC"/>
<path d="M85.2531 142.869C84.577 142.893 84.5539 143.827 84.3208 143.874C83.8314 144.061 83.9943 144.225 83.7846 144.505C83.5748 144.785 83.4818 144.972 84.2275 145.766C84.9734 146.561 85.8589 145.907 86.3717 145.486C86.8845 145.066 86.7446 144.037 86.5349 143.593C86.3252 143.15 85.9288 142.846 85.2531 142.869Z" fill="#FFFAFC"/>
<path d="M91.4291 137.753C91.196 137.309 90.6136 137.169 90.054 137.589C89.9999 137.644 89.8492 137.799 89.6813 137.986C89.6345 138.056 89.215 138.337 88.9588 138.897C88.7022 139.458 88.9588 139.645 89.0752 140.229C89.1919 140.813 90.2406 140.813 91.0796 140.697C91.9186 140.58 91.7787 140.136 91.9653 139.365C92.1517 138.594 91.6623 138.197 91.4291 137.753Z" fill="#FFFAFC"/>
<path d="M98.025 143.734C97.7685 143.477 97.4189 143.687 96.6964 143.851C96.3936 144.108 96.5799 144.154 96.5334 144.738C96.4866 145.322 96.8362 145.182 97.0927 145.393C97.349 145.603 97.6986 145.486 98.2579 145.322C98.8175 145.159 98.7707 144.808 98.7707 144.458C98.7707 144.108 98.2813 143.991 98.025 143.734Z" fill="#FFFAFC"/>
<path d="M98.3746 141.374C97.8384 142.262 98.2813 142.682 98.2813 143.173C98.5144 143.593 98.2813 143.407 98.5144 143.664C98.7475 143.921 99.0272 143.991 99.4467 144.248C99.8654 144.504 100.447 144.202 101.075 143.876L101.078 143.874C101.707 143.547 101.404 143.173 101.498 142.355C101.591 141.538 101.311 141.561 101.078 141.047C100.845 140.533 100.146 140.463 99.5166 140.393C98.8874 140.323 98.9105 140.486 98.3746 141.374Z" fill="#FFFAFC"/>
<path d="M105.972 148.57C104.9 148.383 104.178 149.785 104.131 149.855C103.945 150.369 103.688 150.182 103.455 150.766C103.339 151.21 104.038 151.701 104.551 151.958C105.063 152.215 106.229 151.817 106.811 151.537C107.394 151.257 107.604 150.276 107.557 149.435C107.511 148.593 107.044 148.757 105.972 148.57Z" fill="#FFFAFC"/>
<path d="M112.009 154.154C111.706 153.733 111.519 153.92 110.843 154.06C110.766 154.06 110.564 154.093 110.377 154.224C110.144 154.387 110.214 154.598 110.261 155.112C110.307 155.626 110.75 155.532 111.286 155.836C111.822 156.14 112.009 155.649 112.335 155.182C112.661 154.715 112.312 154.575 112.009 154.154Z" fill="#FFFAFC"/>
<path d="M106.555 133.898C106.392 133.36 105.996 133.384 105.343 133.337C104.994 133.313 104.76 133.431 104.457 133.781C104.155 134.131 104.341 134.108 104.387 134.669C104.434 135.229 104.807 135.136 105.343 135.487C105.879 135.837 106.182 135.487 106.485 135.136C106.788 134.786 106.718 134.435 106.555 133.898Z" fill="#FFFAFC"/>
<path d="M108.093 139.762C106.928 140.276 107.487 141.024 107.487 141.141C107.619 141.366 107.926 141.827 108.093 141.865C108.303 141.911 109.002 142.168 109.259 142.122C109.515 142.075 109.771 141.818 110.051 141.491C110.331 141.164 110.587 141.584 110.797 141.935C111.007 142.285 111.263 142.075 112.195 142.028C113.128 141.982 112.685 141.538 112.894 140.837C113.104 140.136 112.452 139.575 111.822 139.061C111.193 138.547 110.494 138.897 109.981 139.248C109.468 139.598 109.259 139.248 108.093 139.762Z" fill="#FFFAFC"/>
<path d="M123.149 124.996C123.266 124.155 122.427 124.342 121.215 124.552C120.679 124.809 120.423 124.552 119.98 124.996C119.537 125.44 119.816 126.234 119.863 126.959C119.91 127.683 121.215 127.192 122.007 126.959C122.8 126.725 123.033 125.837 123.149 124.996Z" fill="#FFFAFC"/>
<path d="M125.969 133.711C125.293 133.711 125.223 134.061 125.107 134.505C124.991 134.949 124.524 135.369 124.618 135.767C124.711 136.164 124.921 136.304 125.223 136.491C125.527 136.678 126.063 136.654 126.552 136.491C127.042 136.328 127.251 135.697 127.298 135.089C127.345 134.482 127.228 134.458 126.995 134.061C126.762 133.664 126.645 133.711 125.969 133.711Z" fill="#FFFAFC"/>
<path d="M139.72 138.968C138.904 138.173 138.392 138.641 137.879 138.687C137.755 138.726 137.417 138.888 137.063 139.225C136.62 139.645 136.737 139.902 136.597 140.907C136.457 141.911 136.853 141.678 137.32 142.215C137.786 142.752 138.741 142.285 139.883 141.865C141.025 141.444 140.676 141.187 140.746 140.486C140.816 139.785 140.536 139.762 139.72 138.968Z" fill="#FFFAFC"/>
<path d="M140.326 143.64C139.907 144.295 140.023 144.551 139.883 144.832C139.743 145.112 139.212 144.813 138.858 145.019C138.415 145.276 138.531 145.603 138.485 146.467C138.438 147.332 139.324 147.355 139.883 147.659C140.443 147.962 141.025 147.425 141.258 147.238C141.491 147.051 141.538 146.304 141.515 146.163C141.491 146.023 141.142 145.603 141.142 145.369C141.142 145.136 141.142 145.089 141.445 144.832C141.748 144.575 142.097 144.505 142.47 144.037C142.843 143.57 142.47 143.407 142.26 142.893C142.051 142.379 141.631 142.566 141.142 142.589C140.652 142.612 140.745 142.986 140.326 143.64Z" fill="#FFFAFC"/>
<path d="M141.375 148.079C140.839 147.752 140.583 148.243 140.326 148.406C140.07 148.57 140.023 148.855 140.023 149.154C140.023 149.528 140.256 149.458 140.629 149.832C141.002 150.205 141.375 149.972 141.958 149.925C142.54 149.879 142.354 149.341 142.354 148.78C142.354 148.22 141.911 148.406 141.375 148.079Z" fill="#FFFAFC"/>
<path d="M144.382 144.131C143.496 145.057 143.053 144.949 142.657 145.603C142.26 146.257 142.494 146.14 143.006 146.467C143.519 146.794 144.148 146.981 144.824 146.911C145.934 146.796 149.369 146.561 150.371 146.607C151.373 146.654 153.378 146.421 154.427 146.327C155.475 146.234 156.174 145.836 156.874 145.322C157.573 144.808 158.645 144.201 159.297 143.43C159.95 142.659 159.367 142.309 158.971 141.865C158.575 141.421 158.249 141.795 157.363 142.098C156.477 142.402 155.429 143.173 154.916 143.43C154.403 143.687 154.17 143.36 154.357 142.94C154.543 142.519 153.471 142.659 152.282 143.033C151.094 143.407 149.649 142.846 148.46 142.846C147.271 142.846 146.013 142.425 144.382 144.131Z" fill="#FFFAFC"/>
<path d="M150.092 138.407C149.532 139.108 150.115 139.248 150.464 139.785C150.814 140.323 151.01 140.14 151.047 140.44C151.094 140.813 150.861 141.187 151.327 141.608C151.793 142.028 151.909 141.911 152.678 141.841C153.448 141.771 153.727 141.281 153.727 140.743C153.727 140.206 153.121 139.879 152.888 139.785C152.655 139.692 152.352 139.482 152.306 138.874C152.259 138.267 151.676 138.01 151.327 137.729C150.977 137.449 150.651 137.706 150.092 138.407Z" fill="#FFFAFC"/>
<path d="M142.424 127.333C142.032 127.875 141.748 127.893 141.631 128.267C141.515 128.641 141.538 128.58 141.631 128.898C141.748 129.295 141.818 129.248 142.214 129.622C142.61 129.996 143.263 129.786 143.799 129.669C144.335 129.552 144.521 129.272 144.801 128.781C145.081 128.291 144.871 128.104 144.684 127.519C144.498 126.935 144.078 126.936 143.519 126.748C142.96 126.562 142.913 126.655 142.424 127.333Z" fill="#FFFAFC"/>
<path d="M146.153 130.907C145.649 131.281 145.36 131.164 145.151 131.561C144.941 131.958 144.815 132.047 144.778 132.122C144.731 132.216 144.754 132.519 144.848 133.173C144.941 133.828 145.197 133.734 145.593 133.991C145.99 134.248 146.852 133.921 147.551 133.501C148.25 133.08 148.11 132.729 148.25 132.122C148.39 131.515 148.11 131.071 147.644 130.463C147.178 129.856 146.782 130.44 146.153 130.907Z" fill="#FFFAFC"/>
<path d="M157.969 130.533C157.759 129.505 156.477 129.996 156.105 130.066C155.732 130.136 155.526 130.519 155.452 130.93C155.359 131.444 155.801 131.328 156.105 131.818C156.408 132.309 156.967 132.309 157.713 132.122C158.458 131.935 158.179 131.561 157.969 130.533Z" fill="#FFFAFC"/>
<path d="M162.887 132.987C162.644 132.594 162.118 132.706 161.698 132.659C161.279 132.613 161.181 132.711 160.976 132.917C160.719 133.173 160.673 133.36 160.509 134.014C160.346 134.669 160.393 134.762 160.509 135.463C160.626 136.164 160.766 135.93 161.069 136.304C161.372 136.678 161.791 136.678 162.188 136.584C162.584 136.491 162.887 136.071 163.306 135.673C163.726 135.276 163.493 134.832 163.469 134.085C163.446 133.337 163.19 133.477 162.887 132.987Z" fill="#FFFAFC"/>
<path d="M166.546 125.09C166.01 125.113 165.59 125.884 165.544 126.258C165.497 126.632 165.534 127.043 165.684 127.473C165.87 128.01 166.476 128.01 167.152 128.127C167.828 128.244 168.597 127.963 169.063 127.613C169.529 127.263 169.459 126.982 169.413 126.375C169.366 125.767 168.737 125.65 168.387 125.3C168.038 124.949 167.082 125.066 166.546 125.09Z" fill="#FFFAFC"/>
<path d="M159.787 119.997C159.694 120.37 159.065 120.347 158.901 120.417C158.738 120.487 158.668 120.674 158.668 120.674C158.622 120.822 158.51 121.16 158.435 121.328C158.342 121.538 158.412 122.052 158.435 122.286C158.458 122.52 158.598 123.127 158.738 123.361C158.878 123.594 159.111 123.828 159.391 124.015C159.67 124.202 160.393 124.295 160.836 124.295H162.84C163.306 124.295 164.192 124.272 164.402 124.155C164.611 124.038 164.658 123.454 164.611 123.127C164.565 122.8 164.075 122.707 163.796 122.707C163.516 122.707 162.84 122.683 162.584 122.613C162.327 122.543 161.535 122.333 161.372 122.052C161.209 121.772 161.395 121.515 161.442 121.118C161.488 120.721 161.302 120.534 161.092 120.417C160.882 120.3 160.766 120.09 160.836 119.903C160.906 119.716 161.162 119.693 161.535 119.576C161.908 119.459 162.561 119.553 162.84 119.319C163.12 119.085 162.84 118.712 162.677 118.408C162.514 118.104 161.605 117.613 161.302 117.427C160.999 117.239 160.067 117.193 159.74 117.263C159.414 117.333 159.111 117.683 158.971 117.964C158.831 118.244 159.228 118.992 159.391 119.155C159.554 119.319 159.88 119.623 159.787 119.997Z" fill="#FFFAFC"/>
<path d="M174.633 119.132C174.33 118.898 174.307 119.249 173.98 119.646C173.669 120.025 173.556 120.363 173.605 120.647C173.654 120.931 173.445 121.352 173.491 121.468C173.538 121.585 173.771 122.052 173.934 122.263C174.097 122.473 174.447 122.426 174.633 122.333C174.82 122.239 174.983 121.585 175.099 121.118C175.216 120.65 175.169 120.23 175.099 119.809C175.029 119.389 174.936 119.366 174.633 119.132Z" fill="#FFFAFC"/>
<path d="M168.107 115.23C167.641 115.254 167.688 115.744 167.688 115.908C167.688 116.071 167.87 116.043 167.944 116.118C168.038 116.211 168.177 116.211 168.48 116.422C168.783 116.632 168.737 116.866 168.737 117.169V118.104C168.737 118.595 168.9 118.711 169.226 119.155C169.552 119.599 170.228 119.295 170.811 119.155C171.394 119.015 171.324 118.758 171.58 118.198C171.836 117.637 171.51 117.496 171.37 117.006C171.23 116.515 170.951 116.725 170.391 116.492C169.832 116.258 169.902 116.375 169.925 115.908C169.949 115.44 169.762 115.394 169.412 115.23C169.063 115.067 168.573 115.207 168.107 115.23Z" fill="#FFFAFC"/>
<path d="M156.128 110.908C156.333 111.618 158.451 110.955 159.484 110.534C159.616 110.402 159.857 110.072 159.764 109.81C159.647 109.483 158.762 109.974 158.668 109.483C158.575 108.992 159.484 108.548 159.88 107.941C160.277 107.333 163.539 104.81 163.679 104.32C163.819 103.829 165.031 103.268 165.031 103.011C165.031 102.754 166.289 101.843 166.569 101.376C166.849 100.909 167.199 100.348 167.035 100.091C166.872 99.8338 165.893 100.838 165.171 101.095C164.448 101.352 163.982 101.539 163.679 101.376C163.376 101.212 162.7 100.441 162.327 100.465C161.954 100.488 162.421 101.446 162.327 102.123C162.234 102.801 161.908 103.245 161.372 103.969C160.836 104.693 160.393 105.067 159.6 105.931C158.808 106.796 156.99 107.59 156.617 108.174C156.244 108.759 155.871 110.02 156.128 110.908Z" fill="#FFFAFC"/>
<path d="M166.033 110.067C166.429 109.997 166.709 109.459 166.546 108.829C166.468 108.696 166.289 108.403 166.196 108.291C166.08 108.151 165.963 108.034 165.847 107.941C165.73 107.847 165.427 107.847 164.984 107.801C164.63 107.763 164.495 108.159 164.472 108.361C164.472 108.782 164.378 109.109 164.472 109.553C164.565 109.997 165.637 110.137 166.033 110.067Z" fill="#FFFAFC"/>
<path d="M173.235 108.268C173.216 107.576 172.155 107.419 171.627 107.427C171.432 107.466 170.983 107.581 170.741 107.731C170.438 107.917 170.158 108.104 169.972 108.618C169.785 109.132 170.228 109.553 170.531 110.067C170.834 110.581 171.766 110.511 172.279 110.254C172.792 109.997 173.258 109.132 173.235 108.268Z" fill="#FFFAFC"/>
<path d="M177.616 109.857C177.598 109.52 177.197 109.179 176.801 109.062C176.404 108.945 176.102 109.179 176.102 109.179C175.899 109.358 175.467 109.763 175.356 109.95C175.216 110.184 174.96 111.212 175.053 111.772C175.146 112.333 176.032 112.567 176.358 112.473C176.684 112.38 177.29 111.913 177.5 111.399C177.71 110.885 177.64 110.277 177.616 109.857Z" fill="#FFFAFC"/>
<path d="M167.921 104.927C167.212 105.432 166.616 105.137 166.406 104.927C166.274 104.834 165.991 104.703 165.917 104.927C165.823 105.207 166.406 105.675 166.662 105.675C166.919 105.675 167.152 106.048 167.152 106.446C167.152 106.843 166.919 106.773 167.152 107.17C167.385 107.567 167.921 107.38 168.9 106.773C169.879 106.165 170.811 106.212 172.023 105.675C173.235 105.137 174.47 104.74 175.262 104.179C176.055 103.619 177.943 103.759 179.108 103.268C180.273 102.777 180.46 102.31 180.926 101.376C181.392 100.441 181.765 99.0394 181.975 98.2216C182.184 97.404 182.208 95.7217 182.091 95.0208C181.975 94.32 181.602 95.2545 180.926 95.7217C180.25 96.1891 179.854 96.4694 178.991 97.0301C178.129 97.5908 176.591 97.6609 175.565 97.801C174.54 97.9412 172.769 98.572 172.023 99.0394C171.277 99.5066 170.042 101.399 169.599 102.31C169.156 103.221 168.807 104.296 167.921 104.927Z" fill="#FFFAFC"/>
<path d="M166.523 90.3248C166.56 91.2591 167.222 91.3216 167.548 91.2359C167.68 91.1814 168.01 90.9883 168.271 90.6518C168.597 90.2313 168.69 90.3248 168.737 89.7639C168.783 89.2032 168.387 89.2967 168.131 88.9463C167.874 88.5959 167.175 88.666 166.942 88.666C166.709 88.666 166.476 89.1566 166.523 90.3248Z" fill="#FFFAFC"/>
<path d="M170.275 89.0164C169.692 89.2266 169.249 89.9976 169.063 90.1378C168.869 90.4492 168.452 91.0911 168.341 91.1658C168.2 91.2591 167.898 91.633 167.501 91.7966C167.105 91.9602 166.569 92.5676 166.336 93.0582C166.103 93.5488 165.987 93.5956 166.219 94.0628C166.453 94.5302 167.292 94.0628 167.898 93.7124C168.504 93.3619 168.9 93.0582 169.366 92.5676C169.832 92.077 170.275 91.6799 170.741 90.8855C171.207 90.0911 171.161 90.1377 171.137 89.3202C171.114 88.5023 170.857 88.8061 170.275 89.0164Z" fill="#FFFAFC"/>
<path d="M170.485 93.6889C170.522 93.39 169.77 93.4399 169.389 93.5021C169.133 93.6033 168.532 93.8806 168.177 94.1798C167.734 94.5534 167.734 94.6704 167.478 95.2311C167.222 95.7917 167.478 95.9319 167.618 96.002C167.758 96.0721 169.389 95.5114 169.925 95.0909C170.461 94.6704 170.438 94.0628 170.485 93.6889Z" fill="#FFFAFC"/>
<path d="M173.538 93.8994C173.445 93.3385 172.349 93.7358 171.79 94.2499C171.23 94.7637 171.137 94.6235 170.648 94.9273C170.158 95.2311 170.228 95.7451 170.275 96.1656C170.322 96.5861 171.021 96.7263 171.65 96.6797C172.279 96.6328 173.095 96.1656 173.654 95.4413C174.214 94.717 173.654 94.6003 173.538 93.8994Z" fill="#FFFAFC"/>
<path d="M175.169 87.6379C174.68 87.9883 174.657 88.2454 174.12 88.4088C173.584 88.5724 173.384 88.8481 173.328 89.6706C173.258 90.6984 174.284 90.5351 175.169 90.6984C176.055 90.8621 176.871 90.1143 177.034 89.4135C177.197 88.7126 176.824 88.0818 176.521 87.6379C176.218 87.1939 175.659 87.2874 175.169 87.6379Z" fill="#FFFAFC"/>
<path d="M181.112 89.3903C180.627 89.7453 180.382 90.9556 180.32 91.5163V92.4039C180.32 92.7077 180.646 93.362 181.112 93.7825C181.579 94.203 181.951 93.6188 182.278 93.2452C182.604 92.8714 182.441 92.6611 182.464 91.9603C182.487 91.2591 182.79 90.9556 182.79 90.3715C182.79 89.7873 182.627 89.6237 182.278 89.1566C181.928 88.6891 181.718 88.9463 181.112 89.3903Z" fill="#FFFAFC"/>
<path d="M167.968 102.1C167.851 101.539 167.082 101.633 166.709 101.96C166.336 102.287 166.243 102.511 166.057 102.847C165.823 103.268 166.08 103.362 166.289 103.782C166.499 104.203 167.408 103.805 167.758 103.595C168.107 103.385 168.084 102.661 167.968 102.1Z" fill="#FFFAFC"/>
<path d="M162.77 83.6894C161.861 85.4418 162.071 86.2593 162.001 86.5866C162.001 86.9291 162.104 87.4696 162.514 86.8904C163.027 86.1661 163.073 86.0024 164.332 84.6239C165.582 83.2544 165.636 83.0381 166.003 81.5683L166.01 81.5402C166.383 80.0447 166.173 79.671 166.01 78.7365C165.847 77.8019 165.59 76.7738 165.217 77.9186C164.845 79.0635 164.984 79.3907 164.332 81.0728C163.679 82.7551 163.679 81.9372 162.77 83.6894Z" fill="#FFFAFC"/>
<path d="M175.263 77.3345C174.54 77.9186 175.029 79.04 175.263 79.7643C175.426 80.0215 175.915 80.5633 176.568 80.6757C177.383 80.8159 177.686 79.7643 177.873 78.5963C178.059 77.428 177.5 77.5917 176.847 76.8908C176.195 76.1897 175.985 76.7504 175.263 77.3345Z" fill="#FFFAFC"/>
<path d="M177.733 73.3162C177.08 73.5264 177.174 75.302 177.174 75.4422C177.174 75.5745 177.216 75.8813 177.383 76.0495C177.593 76.2598 178.036 76.0029 178.805 75.4422C179.574 74.8815 179.271 74.4376 179.061 73.7367C178.852 73.0356 178.386 73.1057 177.733 73.3162Z" fill="#FFFAFC"/>
<path d="M177.896 67.7088C177.15 67.7088 176.125 68.9472 176.055 69.6947C175.985 70.4424 176.2 70.2788 176.311 70.5591C176.451 70.9096 176.731 71.0031 177.896 71.5171C179.061 72.0309 178.852 71.0732 179.458 69.9284C180.064 68.7836 179.714 68.8771 179.458 68.0126C179.201 67.1481 178.642 67.7088 177.896 67.7088Z" fill="#FFFAFC"/>
<path d="M169.622 73.0825C169.175 73.0637 169.063 71.8908 169.063 71.3066V70.7228C169.063 70.3254 169.483 71.3066 169.785 71.3066C170.088 71.3066 171.394 69.461 171.021 68.6199C170.648 67.7789 171.067 66.5171 170.881 65.5828C170.695 64.6482 171.114 62.4753 170.764 61.6809C170.415 60.8865 170.484 60.4194 169.972 60.0221C169.459 59.625 169.622 60.5127 169.343 61.2604C169.063 62.0082 168.923 62.0314 168.527 61.9613C168.131 61.8912 167.361 61.4941 167.199 62.3352C167.035 63.1762 168.504 64.9518 168.76 66.0265C169.016 67.1012 168.853 67.7088 168.247 68.0592C167.641 68.4097 166.057 67.4517 165.264 67.9423C164.472 68.4331 165.194 70.9096 166.686 71.704C168.177 72.4983 168.387 74.671 169.343 75.3252C170.298 75.9794 170.182 73.1057 169.622 73.0825Z" fill="#FFFAFC"/>
<path d="M172.396 56.0035C171.557 55.6299 171.417 56.9849 171.533 57.6157C171.65 58.2465 172.181 58.3073 172.536 58.6438C172.979 59.0643 173.468 58.9473 174.074 58.7605C174.68 58.5737 174.656 57.6157 174.353 57.055C174.05 56.4943 173.235 56.3774 172.396 56.0035Z" fill="#FFFAFC"/>
<path d="M177.197 60.3493C176.661 61.2138 176.055 60.4429 175.868 60.4895C175.581 60.5285 175.062 60.7232 175.286 61.1903C175.565 61.7745 175.682 61.4941 176.591 62.1015C177.5 62.709 177.547 62.6155 178.339 63.3867C179.131 64.1576 179.644 63.8304 179.854 63.3867C180.064 62.9427 179.784 62.4052 179.481 61.1903C179.178 59.9754 178.991 59.8587 178.852 58.8775C178.712 57.8961 178.176 56.7512 177.849 56.3076C177.523 55.8636 176.964 55.6299 176.964 56.3076C176.964 56.985 177.407 57.6392 177.547 58.8775C177.686 60.1156 177.733 59.4848 177.197 60.3493Z" fill="#FFFAFC"/>
<path d="M158.808 46.7983C158.365 46.1209 157.876 46.2611 157.386 46.1675C156.897 46.074 157.181 46.9107 157.386 47.359C157.643 47.9199 157.666 48.1302 158.225 48.5973C158.785 49.0648 158.995 48.9947 159.367 48.1302C159.74 47.2657 159.251 47.476 158.808 46.7983Z" fill="#FFFAFC"/>
<path d="M166.289 47.0786C165.847 46.518 165.264 46.9153 165.101 46.9153C164.876 47.032 164.434 47.3685 164.472 47.7798C164.518 48.2936 164.542 48.3871 164.961 48.9712C165.381 49.5554 165.94 49.3451 166.429 49.275C166.919 49.2049 166.965 48.8777 166.989 48.0132C167.012 47.1487 166.732 47.6396 166.289 47.0786Z" fill="#FFFAFC"/>
<path d="M169.552 41.4481C169.105 41.0183 168.107 41.4481 167.804 41.8454C167.501 42.2425 166.905 42.4154 166.942 43.107C166.989 43.9714 166.965 44.065 167.548 44.8125C168.131 45.5602 168.993 45.5133 169.739 45.4667C170.485 45.4201 170.531 45.2098 170.927 44.2752C171.324 43.3407 170.974 43.2706 170.718 42.5228C170.461 41.7754 170.112 41.9856 169.552 41.4481Z" fill="#FFFAFC"/>
<path d="M161.885 36.9157C161.255 36.7521 161.115 37.5231 161.022 37.6633C160.929 37.8035 160.775 37.8923 160.812 38.154C160.859 38.481 160.859 38.3876 161.349 39.1119C161.838 39.8361 162.281 39.2986 162.77 38.8782C163.26 38.4577 163.027 38.1773 162.864 37.4998C162.7 36.8222 162.514 37.0792 161.885 36.9157Z" fill="#FFFAFC"/>
<path d="M153.751 43.2706C153.494 42.6865 152.655 42.6398 152.306 42.8733C151.956 43.107 151.923 43.4994 151.886 44.1351C151.839 44.9295 151.886 44.8826 152.469 45.1629C153.051 45.4432 153.657 45.3031 154.054 44.7658C154.45 44.2283 154.007 43.8547 153.751 43.2706Z" fill="#FFFAFC"/>
<path d="M158.552 32.2897C158.155 31.7757 157.992 32.2897 157.666 31.8458C157.34 31.4019 157.242 32.3224 157.13 32.4532C156.99 32.6168 156.85 32.9906 156.897 33.8784C156.943 34.7662 157.177 34.6494 157.829 35.1634C158.482 35.6774 158.925 35.327 159.297 34.883C159.67 34.4391 159.577 33.8083 159.437 33.2009C159.297 32.5934 158.948 32.8037 158.552 32.2897Z" fill="#FFFAFC"/>
<path d="M143.03 33.2476C142.424 33.2242 141.701 33.5747 141.655 34.0887C141.608 34.6026 141.687 34.7335 141.818 35.2568C141.981 35.911 142.587 36.0045 143.496 36.2615C144.405 36.5185 144.917 35.8409 145.524 35.2568C146.129 34.6727 146.153 34.369 145.896 33.7148C145.64 33.0607 145.454 33.3644 144.614 33.4578C143.775 33.5513 143.636 33.2709 143.03 33.2476Z" fill="#FFFAFC"/>
<path d="M151.28 27.2665C150.884 27.2665 150.697 28.0609 150.674 28.3179C150.674 28.4113 150.707 28.6169 150.837 28.6917C151.001 28.7851 151.187 28.9019 151.63 29.486C152.073 30.0701 152.166 29.743 152.772 29.9066C153.378 30.0701 153.354 29.6028 153.541 29.1589C153.727 28.715 153.517 28.3179 153.354 27.8506C153.191 27.3833 152.748 27.4768 152.329 27.2665C151.909 27.0562 151.676 27.2665 151.28 27.2665Z" fill="#FFFAFC"/>
<path d="M144.591 25.7946C144.172 25.888 144.708 26.7291 144.778 26.9861C144.848 27.2431 145.16 27.2384 145.29 27.3132C145.454 27.4067 145.71 27.43 145.92 27.6403C146.129 27.8506 145.99 27.9674 146.176 28.3879C146.363 28.8085 146.898 28.458 147.201 28.0608C147.505 27.6637 147.505 27.5468 147.458 26.9861C147.411 26.4254 147.085 26.2618 146.782 26.0749C146.479 25.888 145.896 25.7245 145.617 25.631C145.337 25.5376 145.011 25.7011 144.591 25.7946Z" fill="#FFFAFC"/>
<path d="M132.076 29.9299C131.628 30.229 131.749 31.1448 131.842 31.8458C131.936 32.5467 132.57 32.528 133.241 32.7336C134.08 32.9906 134.243 32.2196 134.523 31.6588C134.803 31.0981 134.872 30.7477 134.663 30.1402C134.453 29.5328 134.01 29.9299 133.241 29.5561C132.472 29.1823 132.635 29.5561 132.076 29.9299Z" fill="#FFFAFC"/>
<path d="M130.934 34.7195C129.955 34.0419 129.955 34.2989 129.302 34.9297C128.65 35.5606 128.202 35.2849 127.904 35.7708C127.531 36.3783 127.647 36.5185 127.741 37.453C127.834 38.3876 128.51 38.3876 129.302 38.8548C130.095 39.3221 130.724 38.738 131.796 37.9436C132.868 37.1493 132.309 36.9157 132.239 35.911C132.169 34.9064 131.912 35.397 130.934 34.7195Z" fill="#FFFAFC"/>
<path d="M133.031 21.1921C132.565 21.1687 132.658 22.407 132.612 22.734C132.612 22.8041 132.658 23.0004 132.845 23.2247C133.078 23.505 133.427 23.3649 134.243 23.3415C135.059 23.3181 135.106 23.1079 135.082 22.3836C135.059 21.6593 134.872 22.0098 134.243 21.4958C133.614 20.9818 133.497 21.2154 133.031 21.1921Z" fill="#FFFAFC"/>
<path d="M127.484 18.7388C126.715 18.7622 127.438 20.1172 127.484 20.2341C127.601 20.3898 127.932 20.8088 128.323 21.2387C128.813 21.7761 129.069 21.3555 129.885 21.2387C130.7 21.1219 130.328 20.8415 130.351 19.8135C130.374 18.7855 129.722 19.4864 129.069 19.1126C128.416 18.7388 128.253 18.7154 127.484 18.7388Z" fill="#FFFAFC"/>
<path d="M113.99 23.248C113.174 23.7854 113.477 25.7012 113.407 25.7946V26.2385C113.407 26.6824 114.293 26.2385 115.202 25.2806C116.111 24.3227 116.251 24.3227 116.973 23.5517C117.696 22.7807 117.626 22.6406 117.556 21.7995C117.486 20.9584 116.647 21.7995 115.738 21.7995C114.829 21.7995 114.805 22.7106 113.99 23.248Z" fill="#FFFAFC"/>
<path d="M119.677 22.2434C118.208 22.5938 118.861 24.6031 118.744 24.9302C118.573 25.5921 118.581 26.9067 119.98 26.8693C121.728 26.8226 121.844 24.3928 121.728 23.6919C121.611 22.991 121.145 21.8929 119.677 22.2434Z" fill="#FFFAFC"/>
<path d="M110.307 18.2949C108.611 17.8276 108.303 19.907 108.839 20.6313C109.375 21.3555 110.471 21.1219 111.007 20.9583C111.543 20.7948 112.428 18.879 110.307 18.2949Z" fill="#FFFAFC"/>
<path d="M102.5 27.4502V27.4535C102.523 28.7852 103.245 30.3505 104.294 29.8599C105.343 29.3693 105.133 27.2665 105.413 26.5423C105.693 25.818 107.464 23.9022 104.947 23.7386C102.432 23.5752 102.476 26.1176 102.5 27.4502Z" fill="#FFFAFC"/>
<path d="M93.5268 34.299C92.9441 34.9532 93.2472 36.6353 93.2472 36.6353C93.2472 36.6353 93.5269 37.5932 93.9229 38.2708C94.3193 38.9483 95.1117 38.8081 96.0905 38.411C97.0693 38.0138 97.0459 37.126 97.3256 36.2381C97.6055 35.3503 96.2538 34.299 95.6477 33.9018C95.0418 33.5046 94.1096 33.6448 93.5268 34.299Z" fill="#FFFAFC"/>
<path d="M89.122 29.6029C88.3015 30.3505 88.0964 31.2617 88.0499 32.0561C88.0031 32.8504 88.5066 33.042 89.122 33.3411C89.891 33.7149 90.5902 33.3644 91.0562 32.8504C91.5225 32.3364 92.1982 30.187 91.942 29.4627C91.6857 28.7384 90.1473 28.6684 89.122 29.6029Z" fill="#FFFAFC"/>
<path d="M79.473 31.4719C78.2845 32.3364 76.9793 33.5279 76.8394 34.4157C76.6996 35.3036 78.0514 34.6821 78.8903 34.5326C79.939 34.3456 81.151 34.4157 81.8036 34.1587C82.4562 33.9017 83.5982 32.827 83.8545 32.2663C84.111 31.7056 87.1641 30.9813 87.4903 30.0935C87.8167 29.2057 87.3973 28.4814 86.465 28.0375C85.5327 27.5936 84.3442 27.9207 83.3186 28.5982C82.293 29.2758 80.6616 30.6075 79.473 31.4719Z" fill="#FFFAFC"/>
<path d="M70.0805 37.5699C69.4978 38.6446 67.3536 38.6679 67.5401 39.3455C67.7265 40.0229 68.7986 39.9763 69.358 39.5092C70.0572 38.9249 71.6886 38.9016 72.4344 38.3642C73.1803 37.8269 75.3478 38.224 76.047 37.5699C76.7461 36.9157 76.5598 36.9858 75.8838 36.4484C75.208 35.9111 72.7374 35.8643 72.0848 35.7942C71.4323 35.7241 70.6632 36.4951 70.0805 37.5699Z" fill="#FFFAFC"/>
<path d="M85.2531 40.9343C84.6377 41.009 84.5925 41.822 84.6469 42.2193C84.6469 42.3906 84.6984 42.78 84.9035 42.9668C85.157 43.1978 85.2509 43.2005 86.0871 43.2231L86.1154 43.224C86.9778 43.2471 86.6279 42.9202 86.9544 42.2193C87.2806 41.5182 87.0009 41.2848 86.6279 40.7707C86.2552 40.2567 86.0221 40.8408 85.2531 40.9343Z" fill="#FFFAFC"/>
<path d="M68.7753 40.9575C67.8804 41.4623 68.5423 42.8501 69.1016 43.0369C69.661 43.2237 70.4348 43.2987 70.8263 43.0369C71.3158 42.7099 71.0128 41.5182 70.4534 40.8408C69.8941 40.1631 69.8941 40.3267 68.7753 40.9575Z" fill="#FFFAFC"/>
<path d="M73.3435 42.3592C72.854 41.7284 72.0149 42.8266 71.8984 42.9902C71.844 43.0369 71.6886 43.191 71.5022 43.4339C71.2691 43.7377 71.8984 44.3453 72.2247 44.6257C72.551 44.906 73.2268 44.6022 73.4599 43.9946C73.693 43.3873 73.8329 42.9903 73.3435 42.3592Z" fill="#FFFAFC"/>
<path d="M71.5954 45.1163C71.4323 44.6723 70.7331 44.5556 70.2437 44.8594C69.7542 45.1629 69.9127 45.1629 69.8008 45.35C69.661 45.5834 69.8708 46.0274 70.0805 46.4247C70.2903 46.8218 70.8729 46.6115 71.3391 46.5649C71.8052 46.518 71.7586 45.5602 71.5954 45.1163Z" fill="#FFFAFC"/>
<path d="M65.1395 47.7329C64.6501 47.7329 64.2306 47.1722 63.4615 47.476C62.6924 47.7798 62.5852 48.1114 62.436 48.7844C62.2495 49.6254 63.042 50.2797 63.5547 50.9104C64.0674 51.5412 65.4425 51.9617 66.0019 51.9151C66.5612 51.8682 66.8875 51.5412 66.8176 50.9104C66.7477 50.2797 66.9108 49.4384 67.1905 49.0879C67.4702 48.7375 68.9152 48.4806 69.0317 48.0367C69.1482 47.5927 69.1249 46.8684 69.0317 46.5881C68.9385 46.3077 67.8664 46.0975 67.4469 46.0274C67.0274 45.9573 66.4214 46.3546 66.2349 46.6816C66.0485 47.0086 65.629 47.7329 65.1395 47.7329Z" fill="#FFFAFC"/>
<path d="M58.7535 52.0086C58.3806 52.7561 57.8446 52.7327 57.4018 53.2936C56.959 53.8543 57.0755 54.1578 57.5416 54.1578C58.0077 54.1578 58.5904 53.7373 59.3362 53.0364C60.082 52.3356 60.3617 52.0086 60.7113 51.1673C61.0609 50.3263 60.8511 49.4384 60.7113 48.8777C60.5714 48.317 60.0587 49.1348 59.5926 49.9524C59.1265 50.7703 59.2197 51.0741 58.7535 52.0086Z" fill="#FFFAFC"/>
<path d="M68.1984 55.8134C67.4759 56.3275 67.7147 57.5159 68.2683 57.8928C68.822 58.2699 69.6481 58.3509 70.2261 58.5004C70.9486 58.6872 70.8553 58.4537 71.3681 57.7995C71.8808 57.1453 71.5312 57.1453 71.2049 56.3043C70.8786 55.463 70.5523 55.6266 69.8531 55.2762C69.1539 54.9258 68.9209 55.2996 68.1984 55.8134Z" fill="#FFFAFC"/>
<path d="M57.7048 61.6109C57.4251 61.0316 55.6305 60.9335 55.0245 61.1672C54.4185 61.4006 54.1482 61.709 53.9058 62.1017C53.6028 62.5923 54.0223 63.5034 54.8381 64.3679C55.6538 65.2324 57.798 64.3445 58.0543 63.7137C58.3107 63.0829 58.0543 62.3352 57.7048 61.6109Z" fill="#FFFAFC"/>
<path d="M52.4841 67.9657C52.018 68.0219 51.8549 67.8724 51.9947 68.5733C52.1345 69.2742 51.6777 69.419 51.715 69.9049C51.7617 70.5125 52.2744 70.3489 53.1134 70.6292C53.9524 70.9096 54.2554 70.2553 54.5817 69.8348C54.908 69.4143 54.4419 68.4331 54.1389 68.0827C53.8359 67.7323 53.0668 67.8956 52.4841 67.9657Z" fill="#FFFAFC"/>
<path d="M60.5481 74.5308C59.2663 74.1338 58.0777 75.2085 57.5649 75.7457C57.0522 76.2832 57.0149 77.8532 57.4251 78.1524C57.9378 78.5262 58.5205 78.1524 58.8701 78.6429C59.2197 79.1335 58.8934 79.2972 58.94 79.9746C58.9866 80.6522 60.1519 80.8625 60.8045 80.886C61.4571 80.9091 62.972 79.9746 63.1818 79.3907C63.3915 78.8066 63.4148 78.2224 62.972 78.1524C62.5292 78.0823 61.6668 78.0122 61.6202 77.6849C61.5736 77.358 62.5525 76.47 62.5059 75.5589C62.4593 74.6478 61.83 74.9282 60.5481 74.5308Z" fill="#FFFAFC"/>
<path d="M134.872 59.1579C134.556 59.6812 135.292 62.0314 135.572 62.8492C135.851 63.6671 136.028 64.0128 136.644 65.4893C137.413 67.3349 137.682 67.7069 138.089 67.4519C138.462 67.2182 138.461 66.7276 138.718 65.9098C138.974 65.0922 140.583 69.4378 141.258 70.3955C141.934 71.3535 142.191 70.5591 142.004 69.648C141.818 68.7369 141.072 67.0311 140.909 65.9098C140.745 64.7884 140.769 63.1296 140.349 62.1715C139.93 61.2138 136.97 57.6858 136.154 56.7281C135.338 55.7701 136.038 57.2187 136.644 58.34C137.249 59.4614 137.436 59.9754 137.39 60.6062C137.343 61.2372 136.69 60.4194 136.154 59.7886C135.618 59.1579 135.269 58.5036 134.872 59.1579Z" fill="#FFFAFC"/>
<path d="M142.683 93C142.374 93 142.22 92.8458 142.22 92.5375V68.802C142.22 68.4937 142.374 68.3395 142.683 68.3395H152.71C153.006 68.3395 153.252 68.4197 153.45 68.58L157.705 72.798C157.84 72.9213 157.92 73.0262 157.945 73.1125C157.982 73.1988 158.001 73.3407 158.001 73.538V78.607C158.001 78.7673 157.939 78.9092 157.816 79.0325L155.781 81.012L154.06 82.492L156.095 85.193L158.186 89.67C158.235 89.781 158.272 89.892 158.297 90.003C158.334 90.1017 158.352 90.225 158.352 90.373V92.5375C158.352 92.8458 158.198 93 157.89 93H153.006C152.734 93 152.549 92.8767 152.451 92.63L149.472 83.972H148.085V92.5375C148.085 92.8458 147.93 93 147.622 93H142.683ZM150.12 79.4395C151.143 79.4395 151.84 79.2298 152.21 78.8105C152.58 78.3788 152.765 77.5772 152.765 76.4055C152.765 75.2215 152.58 74.4198 152.21 74.0005C151.84 73.5688 151.143 73.353 150.12 73.353C149.108 73.353 148.411 73.5688 148.029 74.0005C147.647 74.4198 147.456 75.2215 147.456 76.4055C147.456 77.5772 147.647 78.3788 148.029 78.8105C148.411 79.2298 149.108 79.4395 150.12 79.4395ZM161.391 93C161.082 93 160.928 92.8458 160.928 92.5375V68.802C160.928 68.4937 161.082 68.3395 161.391 68.3395H166.626C166.934 68.3395 167.089 68.4937 167.089 68.802V92.5375C167.089 92.8458 166.934 93 166.626 93H161.391ZM178.138 93C177.854 93 177.608 92.9198 177.398 92.7595L174.383 90.003L171.33 86.0255C171.194 85.8528 171.108 85.748 171.071 85.711C171.034 85.6617 171.016 85.5507 171.016 85.378V75.943C171.016 75.7703 171.034 75.6593 171.071 75.61C171.12 75.5607 171.207 75.4558 171.33 75.2955L174.161 71.6325L177.398 68.58C177.534 68.469 177.639 68.4012 177.713 68.3765C177.799 68.3518 177.941 68.3395 178.138 68.3395H182.708C183.016 68.3395 183.17 68.4937 183.17 68.802V71.762C183.17 71.8607 183.158 71.9655 183.133 72.0765C183.121 72.1752 183.059 72.2615 182.948 72.3355L179.47 74.722L177.195 77.645V83.6945L179.507 86.6175L182.948 88.9855C183.047 89.0472 183.108 89.1212 183.133 89.2075C183.158 89.2938 183.17 89.3863 183.17 89.485V92.5375C183.17 92.8458 183.016 93 182.708 93H178.138ZM186.847 93C186.539 93 186.384 92.8458 186.384 92.5375V68.802C186.384 68.4937 186.539 68.3395 186.847 68.3395H192.082C192.391 68.3395 192.545 68.4937 192.545 68.802V78.607H194.839L196.06 74.0005L197.17 68.58C197.195 68.506 197.25 68.4505 197.336 68.4135C197.435 68.3642 197.577 68.3395 197.762 68.3395H203.09C203.398 68.3395 203.552 68.4937 203.552 68.802V71.1145C203.552 71.2502 203.534 71.3858 203.497 71.5215C203.46 71.6448 203.429 71.7558 203.404 71.8545L201.147 77.275L199.575 80.235L201.184 83.158L203.904 89.337C203.953 89.4233 203.99 89.5158 204.015 89.6145C204.04 89.7132 204.052 89.855 204.052 90.04V92.5375C204.052 92.8458 203.898 93 203.589 93H198.076C197.99 93 197.879 92.9877 197.743 92.963C197.62 92.926 197.546 92.8458 197.521 92.7225L196.152 86.858L195.135 83.5095H192.545V92.5375C192.545 92.8458 192.391 93 192.082 93H186.847ZM213.222 93C212.913 93 212.759 92.8458 212.759 92.5375V75.388C212.759 75.2277 212.821 75.0427 212.944 74.833L217.329 68.617C217.464 68.432 217.662 68.3395 217.921 68.3395H224.044C224.315 68.3395 224.513 68.432 224.636 68.617L229.039 74.833C229.162 75.0057 229.224 75.1907 229.224 75.388V92.5375C229.224 92.8458 229.07 93 228.762 93H223.526C223.218 93 223.064 92.8458 223.064 92.5375V84.675H218.938V92.5375C218.938 92.8458 218.784 93 218.476 93H213.222ZM220.992 80.6975C222.126 80.6975 222.891 80.4508 223.286 79.9575C223.693 79.4518 223.896 78.496 223.896 77.09C223.896 75.684 223.693 74.7343 223.286 74.241C222.891 73.7353 222.126 73.4825 220.992 73.4825C219.869 73.4825 219.105 73.7353 218.698 74.241C218.303 74.7343 218.106 75.684 218.106 77.09C218.106 78.496 218.303 79.4518 218.698 79.9575C219.105 80.4508 219.869 80.6975 220.992 80.6975ZM233.649 93C233.341 93 233.187 92.8458 233.187 92.5375V68.802C233.187 68.4937 233.341 68.3395 233.649 68.3395H244.157C244.453 68.3395 244.7 68.4382 244.897 68.6355L248.597 72.3355C248.807 72.5452 248.912 72.7918 248.912 73.0755V92.5375C248.912 92.8458 248.757 93 248.449 93H243.214C242.905 93 242.751 92.8458 242.751 92.5375V73.2605H239.347V92.5375C239.347 92.8458 239.193 93 238.885 93H233.649ZM253.312 93C253.003 93 252.849 92.8458 252.849 92.5375V68.802C252.849 68.4937 253.003 68.3395 253.312 68.3395H264.597C264.893 68.3395 265.139 68.4382 265.337 68.6355L269.037 72.3355C269.246 72.5452 269.351 72.7918 269.351 73.0755V88.2455C269.351 88.5415 269.246 88.7882 269.037 88.9855L265.337 92.6855C265.139 92.8952 264.893 93 264.597 93H253.312ZM259.028 88.0605H262.414C262.932 88.0605 263.191 87.7152 263.191 87.0245V74.315C263.191 73.612 262.932 73.2605 262.414 73.2605H259.028V88.0605ZM279.259 93C278.95 93 278.796 92.8458 278.796 92.5375V72.465C278.796 72.1813 278.901 71.9347 279.111 71.725L282.182 68.6355C282.391 68.4382 282.638 68.3395 282.922 68.3395H287.158C287.442 68.3395 287.689 68.4382 287.898 68.6355L291.006 71.762H291.876L294.984 68.6355C295.193 68.4382 295.44 68.3395 295.724 68.3395H299.942C300.238 68.3395 300.484 68.4382 300.682 68.6355L303.771 71.725C303.981 71.9347 304.086 72.1813 304.086 72.465V92.5375C304.086 92.8458 303.932 93 303.623 93H298.369C298.061 93 297.907 92.8458 297.907 92.5375V73.2605H294.521V92.5375C294.521 92.8458 294.367 93 294.059 93H288.823C288.515 93 288.361 92.8458 288.361 92.5375V73.2605H284.957V92.5375C284.957 92.8458 284.803 93 284.494 93H279.259ZM312.918 93C312.634 93 312.388 92.8952 312.178 92.6855L308.478 88.9855C308.268 88.7882 308.164 88.5415 308.164 88.2455V73.0755C308.164 72.7918 308.268 72.5452 308.478 72.3355L312.178 68.6355C312.388 68.4382 312.634 68.3395 312.918 68.3395H320.189C320.485 68.3395 320.731 68.4382 320.929 68.6355L324.629 72.3355C324.838 72.5452 324.943 72.7918 324.943 73.0755V88.2455C324.943 88.5415 324.838 88.7882 324.629 88.9855L320.929 92.6855C320.731 92.8952 320.485 93 320.189 93H312.918ZM315.101 88.0605H318.006C318.524 88.0605 318.783 87.7152 318.783 87.0245V74.315C318.783 73.612 318.524 73.2605 318.006 73.2605H315.101C314.595 73.2605 314.343 73.612 314.343 74.315V87.0245C314.343 87.7152 314.595 88.0605 315.101 88.0605ZM329.466 93C329.158 93 329.004 92.8458 329.004 92.5375V68.802C329.004 68.4937 329.158 68.3395 329.466 68.3395H339.493C339.789 68.3395 340.036 68.4197 340.233 68.58L344.488 72.798C344.624 72.9213 344.704 73.0262 344.729 73.1125C344.766 73.1988 344.784 73.3407 344.784 73.538V78.607C344.784 78.7673 344.722 78.9092 344.599 79.0325L342.564 81.012L340.844 82.492L342.879 85.193L344.969 89.67C345.018 89.781 345.055 89.892 345.08 90.003C345.117 90.1017 345.136 90.225 345.136 90.373V92.5375C345.136 92.8458 344.981 93 344.673 93H339.789C339.518 93 339.333 92.8767 339.234 92.63L336.256 83.972H334.868V92.5375C334.868 92.8458 334.714 93 334.406 93H329.466ZM336.903 79.4395C337.927 79.4395 338.624 79.2298 338.994 78.8105C339.364 78.3788 339.549 77.5772 339.549 76.4055C339.549 75.2215 339.364 74.4198 338.994 74.0005C338.624 73.5688 337.927 73.353 336.903 73.353C335.892 73.353 335.195 73.5688 334.813 74.0005C334.43 74.4198 334.239 75.2215 334.239 76.4055C334.239 77.5772 334.43 78.3788 334.813 78.8105C335.195 79.2298 335.892 79.4395 336.903 79.4395ZM351.874 93C351.566 93 351.412 92.8458 351.412 92.5375V73.2605H348.174C347.866 73.2605 347.712 73.1063 347.712 72.798V68.802C347.712 68.4937 347.866 68.3395 348.174 68.3395H360.81C361.118 68.3395 361.272 68.4937 361.272 68.802V72.798C361.272 73.1063 361.118 73.2605 360.81 73.2605H357.572V92.5375C357.572 92.8458 357.418 93 357.11 93H351.874ZM370.201 93C369.893 93 369.739 92.8458 369.739 92.5375V85.3225L364.781 80.383C364.694 80.2843 364.639 80.198 364.614 80.124C364.602 80.0377 364.596 79.939 364.596 79.828V68.802C364.596 68.4937 364.75 68.3395 365.058 68.3395H370.294C370.602 68.3395 370.756 68.4937 370.756 68.802V79.9945H374.9V68.802C374.9 68.4937 375.054 68.3395 375.363 68.3395H380.598C380.907 68.3395 381.061 68.4937 381.061 68.802V79.828C381.061 79.939 381.055 80.0377 381.042 80.124C381.03 80.198 380.974 80.2843 380.876 80.383L375.936 85.3225V92.5375C375.936 92.8458 375.782 93 375.474 93H370.201Z" fill="black"/>
<path d="M169.595 115C169.412 115 169.32 114.908 169.32 114.725V100.612C169.32 100.429 169.412 100.337 169.595 100.337H172.708C172.891 100.337 172.983 100.429 172.983 100.612V114.725C172.983 114.908 172.891 115 172.708 115H169.595ZM175.67 115C175.487 115 175.395 114.908 175.395 114.725V100.612C175.395 100.429 175.487 100.337 175.67 100.337H181.918C182.094 100.337 182.241 100.396 182.358 100.513L184.558 102.713C184.683 102.838 184.745 102.984 184.745 103.153V114.725C184.745 114.908 184.653 115 184.47 115H181.357C181.174 115 181.082 114.908 181.082 114.725V103.263H179.058V114.725C179.058 114.908 178.966 115 178.783 115H175.67ZM189.638 115C189.455 115 189.363 114.908 189.363 114.725V103.263H187.438C187.255 103.263 187.163 103.171 187.163 102.988V100.612C187.163 100.429 187.255 100.337 187.438 100.337H194.951C195.135 100.337 195.226 100.429 195.226 100.612V102.988C195.226 103.171 195.135 103.263 194.951 103.263H193.026V114.725C193.026 114.908 192.935 115 192.751 115H189.638ZM197.917 115C197.734 115 197.642 114.908 197.642 114.725V100.612C197.642 100.429 197.734 100.337 197.917 100.337H205.584C205.768 100.337 205.859 100.429 205.859 100.612V102.988C205.859 103.171 205.768 103.263 205.584 103.263H201.305V106.387H205.21C205.394 106.387 205.485 106.479 205.485 106.662V108.675C205.485 108.858 205.394 108.95 205.21 108.95H201.305V112.063H205.584C205.768 112.063 205.859 112.155 205.859 112.338V114.725C205.859 114.908 205.768 115 205.584 115H197.917ZM208.547 115C208.364 115 208.272 114.908 208.272 114.725V100.612C208.272 100.429 208.364 100.337 208.547 100.337H214.509C214.685 100.337 214.832 100.385 214.949 100.48L217.479 102.988C217.56 103.061 217.607 103.124 217.622 103.175C217.644 103.226 217.655 103.311 217.655 103.428V106.442C217.655 106.537 217.618 106.622 217.545 106.695L216.335 107.872L215.312 108.752L216.522 110.358L217.765 113.02C217.794 113.086 217.816 113.152 217.831 113.218C217.853 113.277 217.864 113.35 217.864 113.438V114.725C217.864 114.908 217.772 115 217.589 115H214.685C214.524 115 214.414 114.927 214.355 114.78L212.584 109.632H211.759V114.725C211.759 114.908 211.667 115 211.484 115H208.547ZM212.969 106.937C213.578 106.937 213.992 106.812 214.212 106.563C214.432 106.306 214.542 105.83 214.542 105.133C214.542 104.429 214.432 103.952 214.212 103.703C213.992 103.446 213.578 103.318 212.969 103.318C212.368 103.318 211.953 103.446 211.726 103.703C211.499 103.952 211.385 104.429 211.385 105.133C211.385 105.83 211.499 106.306 211.726 106.563C211.953 106.812 212.368 106.937 212.969 106.937ZM219.594 115C219.41 115 219.319 114.908 219.319 114.725V100.612C219.319 100.429 219.41 100.337 219.594 100.337H226.304C226.48 100.337 226.626 100.396 226.744 100.513L228.944 102.713C229.068 102.838 229.131 102.984 229.131 103.153V112.173C229.131 112.349 229.068 112.496 228.944 112.613L226.744 114.813C226.626 114.938 226.48 115 226.304 115H219.594ZM222.993 112.063H225.006C225.314 112.063 225.468 111.858 225.468 111.447V103.89C225.468 103.472 225.314 103.263 225.006 103.263H222.993V112.063ZM231.74 115C231.557 115 231.465 114.908 231.465 114.725V100.612C231.465 100.429 231.557 100.337 231.74 100.337H234.853C235.036 100.337 235.128 100.429 235.128 100.612V114.725C235.128 114.908 235.036 115 234.853 115H231.74ZM237.815 115C237.631 115 237.54 114.908 237.54 114.725V102.79C237.54 102.621 237.602 102.475 237.727 102.35L239.553 100.513C239.677 100.396 239.824 100.337 239.993 100.337H242.512C242.68 100.337 242.827 100.396 242.952 100.513L244.8 102.372H245.317L247.165 100.513C247.289 100.396 247.436 100.337 247.605 100.337H250.113C250.289 100.337 250.435 100.396 250.553 100.513L252.39 102.35C252.514 102.475 252.577 102.621 252.577 102.79V114.725C252.577 114.908 252.485 115 252.302 115H249.178C248.994 115 248.903 114.908 248.903 114.725V103.263H246.89V114.725C246.89 114.908 246.798 115 246.615 115H243.502C243.318 115 243.227 114.908 243.227 114.725V103.263H241.203V114.725C241.203 114.908 241.111 115 240.928 115H237.815ZM255.276 115C255.093 115 255.001 114.908 255.001 114.725V100.612C255.001 100.429 255.093 100.337 255.276 100.337H262.943C263.127 100.337 263.218 100.429 263.218 100.612V102.988C263.218 103.171 263.127 103.263 262.943 103.263H258.664V106.387H262.569C262.753 106.387 262.844 106.479 262.844 106.662V108.675C262.844 108.858 262.753 108.95 262.569 108.95H258.664V112.063H262.943C263.127 112.063 263.218 112.155 263.218 112.338V114.725C263.218 114.908 263.127 115 262.943 115H255.276ZM265.906 115C265.723 115 265.631 114.908 265.631 114.725V100.612C265.631 100.429 265.723 100.337 265.906 100.337H272.154C272.33 100.337 272.477 100.396 272.594 100.513L274.794 102.713C274.919 102.838 274.981 102.984 274.981 103.153V114.725C274.981 114.908 274.889 115 274.706 115H271.593C271.41 115 271.318 114.908 271.318 114.725V103.263H269.294V114.725C269.294 114.908 269.202 115 269.019 115H265.906ZM277.344 115C277.161 115 277.069 114.908 277.069 114.725V112.657C277.069 112.562 277.073 112.485 277.08 112.426C277.095 112.367 277.139 112.32 277.212 112.283L280.094 110.963V109.005L277.256 107.245C277.132 107.172 277.069 107.062 277.069 106.915V102.878C277.069 102.761 277.077 102.676 277.091 102.625C277.106 102.566 277.161 102.504 277.256 102.438L280.149 100.48C280.223 100.436 280.289 100.403 280.347 100.381C280.413 100.352 280.494 100.337 280.589 100.337H283.559C283.743 100.337 283.834 100.429 283.834 100.612V102.482C283.834 102.643 283.779 102.753 283.669 102.812L280.787 104V106.035L283.669 107.685C283.779 107.736 283.834 107.854 283.834 108.037V112.822C283.834 112.881 283.823 112.943 283.801 113.009C283.787 113.075 283.75 113.123 283.691 113.152L280.237 114.868C280.193 114.89 280.138 114.919 280.072 114.956C280.014 114.985 279.955 115 279.896 115H277.344ZM286.198 115C286.015 115 285.923 114.908 285.923 114.725V100.612C285.923 100.429 286.015 100.337 286.198 100.337H289.311C289.495 100.337 289.586 100.429 289.586 100.612V114.725C289.586 114.908 289.495 115 289.311 115H286.198ZM294.825 115C294.657 115 294.51 114.938 294.385 114.813L292.185 112.613C292.061 112.496 291.998 112.349 291.998 112.173V103.153C291.998 102.984 292.061 102.838 292.185 102.713L294.385 100.513C294.51 100.396 294.657 100.337 294.825 100.337H299.148C299.324 100.337 299.471 100.396 299.588 100.513L301.788 102.713C301.913 102.838 301.975 102.984 301.975 103.153V112.173C301.975 112.349 301.913 112.496 301.788 112.613L299.588 114.813C299.471 114.938 299.324 115 299.148 115H294.825ZM296.123 112.063H297.85C298.158 112.063 298.312 111.858 298.312 111.447V103.89C298.312 103.472 298.158 103.263 297.85 103.263H296.123C295.823 103.263 295.672 103.472 295.672 103.89V111.447C295.672 111.858 295.823 112.063 296.123 112.063ZM304.665 115C304.481 115 304.39 114.908 304.39 114.725V100.612C304.39 100.429 304.481 100.337 304.665 100.337H310.913C311.089 100.337 311.235 100.396 311.353 100.513L313.553 102.713C313.677 102.838 313.74 102.984 313.74 103.153V114.725C313.74 114.908 313.648 115 313.465 115H310.352C310.168 115 310.077 114.908 310.077 114.725V103.263H308.053V114.725C308.053 114.908 307.961 115 307.778 115H304.665ZM316.356 115C316.173 115 316.081 114.908 316.081 114.725V104.528C316.081 104.433 316.118 104.323 316.191 104.198L318.798 100.502C318.879 100.392 318.996 100.337 319.15 100.337H322.791C322.952 100.337 323.07 100.392 323.143 100.502L325.761 104.198C325.834 104.301 325.871 104.411 325.871 104.528V114.725C325.871 114.908 325.779 115 325.596 115H322.483C322.3 115 322.208 114.908 322.208 114.725V110.05H319.755V114.725C319.755 114.908 319.663 115 319.48 115H316.356ZM320.976 107.685C321.651 107.685 322.105 107.538 322.34 107.245C322.582 106.944 322.703 106.376 322.703 105.54C322.703 104.704 322.582 104.139 322.34 103.846C322.105 103.545 321.651 103.395 320.976 103.395C320.309 103.395 319.854 103.545 319.612 103.846C319.377 104.139 319.26 104.704 319.26 105.54C319.26 106.376 319.377 106.944 319.612 107.245C319.854 107.538 320.309 107.685 320.976 107.685ZM328.502 115C328.319 115 328.227 114.908 328.227 114.725V100.612C328.227 100.429 328.319 100.337 328.502 100.337H331.615C331.798 100.337 331.89 100.429 331.89 100.612V112.063H334.662C334.845 112.063 334.937 112.155 334.937 112.338V114.725C334.937 114.908 334.845 115 334.662 115H328.502ZM340.923 115C340.74 115 340.648 114.908 340.648 114.725V112.657C340.648 112.562 340.652 112.485 340.659 112.426C340.674 112.367 340.718 112.32 340.791 112.283L343.673 110.963V109.005L340.835 107.245C340.711 107.172 340.648 107.062 340.648 106.915V102.878C340.648 102.761 340.656 102.676 340.67 102.625C340.685 102.566 340.74 102.504 340.835 102.438L343.728 100.48C343.802 100.436 343.868 100.403 343.926 100.381C343.992 100.352 344.073 100.337 344.168 100.337H347.138C347.322 100.337 347.413 100.429 347.413 100.612V102.482C347.413 102.643 347.358 102.753 347.248 102.812L344.366 104V106.035L347.248 107.685C347.358 107.736 347.413 107.854 347.413 108.037V112.822C347.413 112.881 347.402 112.943 347.38 113.009C347.366 113.075 347.329 113.123 347.27 113.152L343.816 114.868C343.772 114.89 343.717 114.919 343.651 114.956C343.593 114.985 343.534 115 343.475 115H340.923ZM349.778 115C349.594 115 349.503 114.908 349.503 114.725V100.612C349.503 100.429 349.594 100.337 349.778 100.337H352.891C353.074 100.337 353.166 100.429 353.166 100.612V105.837H355.883V100.612C355.883 100.429 355.974 100.337 356.158 100.337H359.271C359.454 100.337 359.546 100.429 359.546 100.612V114.725C359.546 114.908 359.454 115 359.271 115H356.158C355.974 115 355.883 114.908 355.883 114.725V108.763H353.166V114.725C353.166 114.908 353.074 115 352.891 115H349.778ZM364.785 115C364.617 115 364.47 114.938 364.345 114.813L362.145 112.613C362.021 112.496 361.958 112.349 361.958 112.173V103.153C361.958 102.984 362.021 102.838 362.145 102.713L364.345 100.513C364.47 100.396 364.617 100.337 364.785 100.337H369.108C369.284 100.337 369.431 100.396 369.548 100.513L371.748 102.713C371.873 102.838 371.935 102.984 371.935 103.153V112.173C371.935 112.349 371.873 112.496 371.748 112.613L369.548 114.813C369.431 114.938 369.284 115 369.108 115H364.785ZM366.083 112.063H367.81C368.118 112.063 368.272 111.858 368.272 111.447V103.89C368.272 103.472 368.118 103.263 367.81 103.263H366.083C365.783 103.263 365.632 103.472 365.632 103.89V111.447C365.632 111.858 365.783 112.063 366.083 112.063ZM374.625 115C374.441 115 374.35 114.908 374.35 114.725V100.612C374.35 100.429 374.441 100.337 374.625 100.337H380.708C380.884 100.337 381.03 100.396 381.148 100.513L383.348 102.713C383.472 102.838 383.535 102.984 383.535 103.153V106.948C383.535 107.124 383.472 107.271 383.348 107.388L381.148 109.588C381.03 109.713 380.884 109.775 380.708 109.775H378.013V114.725C378.013 114.908 377.921 115 377.738 115H374.625ZM378.838 106.783C379.446 106.783 379.861 106.662 380.081 106.42C380.308 106.178 380.422 105.72 380.422 105.045C380.422 104.37 380.308 103.912 380.081 103.67C379.861 103.428 379.446 103.307 378.838 103.307C378.236 103.307 377.822 103.428 377.595 103.67C377.375 103.912 377.265 104.37 377.265 105.045C377.265 105.72 377.375 106.178 377.595 106.42C377.822 106.662 378.236 106.783 378.838 106.783Z" fill="currentColor"/>
</svg>
